M48
;Layer_Color=9474304
;FILE_FORMAT=4:4
METRIC,LZ
;TYPE=PLATED
T01F00S00C0.3000
T02F00S00C0.7000
T03F00S00C0.7800
T04F00S00C0.7900
T05F00S00C0.8128
T06F00S00C0.8636
T07F00S00C1.0668
T08F00S00C1.2500
T09F00S00C2.0000
%
T01
X0073Y00015
X00905Y00275
X0093Y00295
X00959294Y00225
X00915Y00415
X0091Y00485
X0092Y00495
X0091Y0051
X0089Y00485
X00935
Y0057
X0092Y0059
X00935Y0063
Y00655
X00915Y00665
X0096Y00675
X00965Y0072
X00875Y00695
X00815Y0074
Y0077
X00835Y0058
X0085Y00565
Y0055
X00835
Y00515
X0085Y00525
X0067Y00475
Y00585
X00662669Y00642331
X0066Y00665
X00695Y0068
X00745Y0069
X00785Y00715
X0069Y00785
X00575Y00545
X00225Y00835
X00285Y0093
X0048Y00845
X00645Y00835
X00685
X0065Y0087
X0064Y009024
X008Y0093
X0092Y00965
X00925Y0085
X00875Y00845
X00885Y00815
X00935Y00795
T02
X00199738Y0088057
X0025Y0088187
Y0095813
X00199738Y0095683
T03
X000603Y008819
Y009073
Y009327
Y009581
X001397
Y009327
Y009073
Y008819
X005353Y008769
Y009023
Y009277
Y009531
X006147
Y009277
Y009023
Y008769
X006753
Y009023
Y009277
Y009531
X007547
Y009277
Y009023
Y008769
X008203
Y009023
Y009277
Y009531
X008997
Y009277
Y009023
Y008769
T04
X00885Y003096
Y00335
Y003604
Y004146
Y0044
Y004654
Y005296
Y00555
Y005804
T05
X001Y0005
X00165
X0023
Y002
X00165
X001
X00445Y00435
X0051
X00575
X0064
X0071
X00785
Y00585
X0071
X0064
X00575
X0051
X00445
X0038
Y00435
T06
X0008Y0029
X0013
X002
X0025
X00835Y0075
X00915
X00965
X00785
X007
X0065
X0056
X0051
X00425
X00375
X0025Y0077
X002
X0013
X0008
Y0065
X0013
X002
X0025
Y0053
X002
X0013
X0008
Y0041
X0013
X002
X0025
T07
X00045Y000742
Y000996
Y00125
Y001504
Y001758
X00285Y001754
Y0015
Y001246
Y000992
Y000738
X003792Y00045
X00385Y002346
Y0026
Y002854
Y003108
Y003362
X0058Y003204
Y00295
X00645Y00045
X006704
X00725
X007504
X004808
X004554
X0043
X004046
X0081
X008354
X0089
X009154
X0096Y00155
Y001804
Y00255
Y002804
Y0035
Y003754
Y00445
Y004704
Y005392
Y005646
Y0059
Y006154
Y006408
X00395Y00885
X00335
X003096
Y0095
X00335
X004204Y00885
X00495Y008946
Y0092
X00955Y009304
Y00905
Y008796
Y008542
Y009558
T08
X005346Y00045
X0056
X005854
X003946Y0095
X0042
X004454
T09
X00025Y00025
X0038Y0014
X00585Y00175
X0065Y0038
X00745Y00315
X00915Y0011
X00425Y0065
X00025Y0097
X0058Y0083
X0073Y00835
M30
