%TF.GenerationSoftware,Altium Limited,Altium Designer,25.1.2 (22)*%
G04 Layer_Color=65535*
%FSLAX45Y45*%
%MOMM*%
%TF.SameCoordinates,72AD03BC-5321-4E10-B882-476D86518C11*%
%TF.FilePolarity,Positive*%
%TF.FileFunction,Legend,Top*%
%TF.Part,Single*%
G01*
G75*
%TA.AperFunction,NonConductor*%
%ADD23C,0.12700*%
%ADD24C,0.25400*%
%ADD25C,0.15240*%
%ADD26C,0.20000*%
%ADD27C,0.07620*%
G36*
X7962211Y2294422D02*
X7969238Y2289951D01*
X7977224Y2287076D01*
X7979460Y2285479D01*
X7981376Y2283563D01*
X7985528Y2281965D01*
X7989042Y2279730D01*
X7992236Y2276535D01*
X7996708Y2273980D01*
X8001179Y2269509D01*
X8002457Y2268870D01*
X8005332Y2265995D01*
X8005971Y2264717D01*
X8008206Y2262481D01*
X8009484Y2261843D01*
X8010442Y2260884D01*
X8012998Y2256413D01*
X8016831Y2252580D01*
X8020025Y2246830D01*
X8023219Y2243636D01*
X8024177Y2239484D01*
X8025135Y2237248D01*
X8027690Y2234693D01*
X8028329Y2233415D01*
X8029607Y2230221D01*
X8030565Y2224152D01*
X8031843Y2220958D01*
X8033440Y2217445D01*
X8034717Y2212973D01*
X8035356Y2206585D01*
X8035995Y2204029D01*
X8036634Y2192531D01*
X8035037Y2190934D01*
X8032482Y2190295D01*
X8021302Y2190614D01*
X8014595Y2190295D01*
X8012678Y2190934D01*
X8006929Y2190295D01*
X8005332Y2188698D01*
X8004693Y2182948D01*
X8005332Y2181032D01*
X8004693Y1885897D01*
X8003096Y1884300D01*
X8000541Y1883661D01*
X7990320Y1884300D01*
X7974988D01*
X7916536Y1883980D01*
X7913980Y1884619D01*
X7912064Y1886535D01*
X7911425Y1891007D01*
X7912064Y1893563D01*
X7911425Y2177199D01*
X7909828Y2178796D01*
X7904717Y2180074D01*
X7689115Y2179754D01*
X7687838Y2180393D01*
X7686560Y2183587D01*
X7685921Y2189975D01*
X7686560Y2265995D01*
X7688796Y2268870D01*
X7708600Y2268231D01*
X7934423Y2268550D01*
X7940491Y2268231D01*
X7943366Y2270467D01*
X7944644Y2273661D01*
X7947199Y2278133D01*
X7949115Y2282604D01*
X7949754Y2287715D01*
X7952629Y2293784D01*
X7955823Y2295061D01*
X7962211Y2294422D01*
D02*
G37*
G36*
X8801302Y2279410D02*
X8801941Y2278133D01*
X8803219Y2274939D01*
X8802580Y2191892D01*
X8801622Y2190934D01*
X8799066Y2190295D01*
X8787887Y2190614D01*
X8368501Y2190295D01*
X8366585Y2190934D01*
X8364029Y2190295D01*
X8355086Y2189656D01*
X8350614Y2186462D01*
X8348378Y2184226D01*
X8347739Y2182948D01*
X8346462Y2181671D01*
X8345823Y2180393D01*
X8344545Y2179115D01*
X8343268Y2174644D01*
X8343907Y1997051D01*
X8346781Y1993538D01*
X8349975Y1988427D01*
X8359558Y1983956D01*
X8364029Y1983317D01*
X8369460Y1982998D01*
X8372334Y1983317D01*
X8374251Y1982678D01*
X8378722Y1983317D01*
X8792998Y1982998D01*
X8799705Y1983317D01*
X8803857Y1981081D01*
X8805135Y1977887D01*
X8804496Y1967666D01*
X8804816Y1898993D01*
X8803219Y1896757D01*
X8800344Y1895798D01*
X8797789Y1895160D01*
X8341671Y1895798D01*
X8339754Y1896437D01*
X8332088Y1897076D01*
X8328894Y1898354D01*
X8321867Y1900270D01*
X8319312Y1900909D01*
X8313243Y1901867D01*
X8308133Y1903145D01*
X8297592Y1907936D01*
X8294079Y1908894D01*
X8290565Y1911130D01*
X8288649Y1913046D01*
X8282580Y1915282D01*
X8281302Y1916560D01*
X8280663Y1917838D01*
X8278427Y1920074D01*
X8277150Y1920712D01*
X8274914Y1922310D01*
X8274275Y1923587D01*
X8269165Y1928698D01*
X8266609Y1933169D01*
X8264373Y1934767D01*
X8261499Y1941474D01*
X8259582Y1944668D01*
X8258305Y1945946D01*
X8257027Y1949140D01*
X8256388Y1951695D01*
X8255430Y1957125D01*
X8253194Y1964472D01*
X8252555Y1967027D01*
X8251278Y1974693D01*
X8250639Y1984914D01*
X8251278Y2202752D01*
X8251916Y2204668D01*
X8252875Y2210098D01*
X8255749Y2219361D01*
X8256388Y2223833D01*
X8257027Y2226388D01*
X8258944Y2229582D01*
X8261499Y2233415D01*
X8263415Y2238526D01*
X8264373Y2240123D01*
X8265651Y2240762D01*
X8267248Y2242358D01*
X8267887Y2243636D01*
X8272359Y2249386D01*
X8280344Y2257371D01*
X8284816Y2259926D01*
X8287371Y2262481D01*
X8290565Y2263759D01*
X8294717Y2265356D01*
X8296953Y2266953D01*
X8302703Y2269509D01*
X8306216Y2270467D01*
X8308772Y2271105D01*
X8313882Y2273022D01*
X8319312Y2275258D01*
X8325381Y2276216D01*
X8333047Y2276855D01*
X8346143Y2277813D01*
X8348059Y2278452D01*
X8352531Y2279091D01*
X8374251Y2279730D01*
X8415135D01*
X8800025Y2280049D01*
X8801302Y2279410D01*
D02*
G37*
G36*
X6560639Y2124496D02*
X6692875D01*
X6788378Y2124816D01*
X6790934Y2122260D01*
X6791573Y2115872D01*
X6791253Y2097666D01*
X6791573Y2085209D01*
X6790934Y2083292D01*
X6791573Y2069238D01*
X6790934Y2067322D01*
X6790295Y2064767D01*
X6788059Y2062531D01*
X6772089Y2063169D01*
X6549460Y2062850D01*
X6547224Y2063808D01*
X6546266Y2066683D01*
X6545627Y2069238D01*
X6545946Y2081695D01*
X6545627Y2107568D01*
X6546266Y2109484D01*
X6545627Y2120983D01*
X6547862Y2124496D01*
X6550418Y2125135D01*
X6560639Y2124496D01*
D02*
G37*
G36*
X6972359Y2285160D02*
X6972998Y2282604D01*
X6972359Y2274300D01*
X6972998Y2273022D01*
X6972359Y2271105D01*
X6972998Y2262801D01*
X6972678Y2211376D01*
X6972998Y2211056D01*
X6972359Y2209140D01*
X6972998Y2200197D01*
X6970762Y2197961D01*
X6968207Y2197322D01*
X6526143Y2196683D01*
X6524226Y2196044D01*
X6521032Y2194128D01*
X6517838Y2190934D01*
X6516560Y2190295D01*
X6514963Y2186781D01*
X6514325Y2180393D01*
X6514963Y2001523D01*
X6518157Y1997051D01*
X6519754Y1995454D01*
X6521032Y1994816D01*
X6526781Y1992260D01*
X6529976Y1990983D01*
X6534447Y1990344D01*
X6940098D01*
X6971081Y1990663D01*
X6973317Y1989066D01*
X6974275Y1988108D01*
X6974914Y1983636D01*
X6974275Y1971499D01*
X6974595Y1905381D01*
X6973637Y1903145D01*
X6970762Y1902187D01*
X6514644Y1902826D01*
X6512727Y1903464D01*
X6505381Y1904422D01*
X6501548Y1905061D01*
X6493882Y1906978D01*
X6490049Y1907617D01*
X6484939Y1908256D01*
X6481744Y1908894D01*
X6479189Y1909533D01*
X6475995Y1910811D01*
X6475037Y1911769D01*
X6473759Y1912408D01*
X6470565Y1913685D01*
X6466413Y1914644D01*
X6464177Y1915602D01*
X6462899Y1916880D01*
X6461622Y1917518D01*
X6460344Y1918796D01*
X6454275Y1921032D01*
X6452359Y1922948D01*
X6451720Y1924226D01*
X6450762Y1925184D01*
X6449484Y1925823D01*
X6445971Y1928698D01*
X6440221Y1934447D01*
X6439582Y1935725D01*
X6435111Y1940197D01*
X6431917Y1945946D01*
X6430000Y1947862D01*
X6428722Y1952973D01*
X6427764Y1956486D01*
X6425209Y1960319D01*
X6424251Y1963194D01*
X6423612Y1965749D01*
X6422334Y1976609D01*
X6421695Y1982998D01*
X6421057Y1987469D01*
X6420418Y1996413D01*
X6421057Y1998329D01*
X6420737Y2191572D01*
X6421376Y2205627D01*
X6422334Y2214251D01*
X6423292Y2221597D01*
X6423931Y2225430D01*
X6425209Y2228624D01*
X6428084Y2233415D01*
X6429681Y2240123D01*
X6431917Y2243636D01*
X6433833Y2245553D01*
X6437027Y2251302D01*
X6440860Y2255135D01*
X6441499Y2256413D01*
X6443735Y2258649D01*
X6445012Y2259287D01*
X6446609Y2260884D01*
X6447248Y2262162D01*
X6448207Y2263120D01*
X6449484Y2263759D01*
X6453956Y2266953D01*
X6455872Y2268870D01*
X6459066Y2270147D01*
X6463538Y2272703D01*
X6464816Y2273980D01*
X6469288Y2275897D01*
X6474079Y2276855D01*
X6476634Y2277494D01*
X6483980Y2281007D01*
X6486536Y2281646D01*
X6492604Y2282604D01*
X6500909Y2283243D01*
X6504103Y2283882D01*
X6506659Y2284521D01*
X6509853Y2285160D01*
X6514963Y2285798D01*
X6522629Y2286437D01*
X6970123Y2286757D01*
X6972359Y2285160D01*
D02*
G37*
G36*
X7083194Y2279730D02*
X7176462Y2279091D01*
X7178378Y2278452D01*
X7189238Y2277174D01*
X7198501Y2276216D01*
X7203612Y2275577D01*
X7205209Y2275258D01*
X7205848D01*
X7209042Y2273980D01*
X7210320Y2273341D01*
X7214791Y2271425D01*
X7217347Y2270786D01*
X7225332Y2267911D01*
X7229165Y2265356D01*
X7233317Y2263759D01*
X7236511Y2262481D01*
X7240025Y2259607D01*
X7240983Y2258649D01*
X7244177Y2257371D01*
X7245455Y2256732D01*
X7248968Y2253857D01*
X7251204Y2251622D01*
X7254398Y2249705D01*
X7258231Y2245872D01*
X7259509Y2245233D01*
X7263022Y2242358D01*
X7264619Y2240123D01*
X7265897Y2239484D01*
X7268772Y2237248D01*
X7269410Y2235970D01*
X7272924Y2232457D01*
X7274202Y2231818D01*
X7275160Y2230860D01*
X7275799Y2229582D01*
X7278034Y2226708D01*
X7279312Y2226069D01*
X7280270Y2225110D01*
X7282826Y2220639D01*
X7283784Y2219680D01*
X7285061Y2219042D01*
X7286659Y2217445D01*
X7287297Y2216167D01*
X7290172Y2212653D01*
X7293047Y2209779D01*
X7293685Y2208501D01*
X7294963Y2207223D01*
X7295602Y2205946D01*
X7300074Y2201474D01*
X7300713Y2200197D01*
X7305823Y2195086D01*
X7306462Y2193808D01*
X7308698Y2190934D01*
X7309975Y2190295D01*
X7311573Y2188698D01*
X7312211Y2187420D01*
X7315086Y2183906D01*
X7317961Y2181032D01*
X7318600Y2179754D01*
X7323710Y2174644D01*
X7324349Y2173366D01*
X7327224Y2169852D01*
X7328501Y2169214D01*
X7329460Y2168256D01*
X7332015Y2163784D01*
X7336486Y2159312D01*
X7337125Y2158034D01*
X7338403Y2156757D01*
X7339042Y2155479D01*
X7341278Y2153882D01*
X7342875Y2152285D01*
X7343514Y2151007D01*
X7345111Y2148771D01*
X7346388Y2148133D01*
X7349263Y2145258D01*
X7351179Y2142064D01*
X7355012Y2138231D01*
X7355651Y2136953D01*
X7360762Y2131843D01*
X7361401Y2130565D01*
X7366511Y2125454D01*
X7367150Y2124177D01*
X7370025Y2120663D01*
X7372261Y2118427D01*
X7372899Y2117150D01*
X7375774Y2113636D01*
X7379926Y2109484D01*
X7380565Y2108206D01*
X7382162Y2105970D01*
X7383440Y2105332D01*
X7385676Y2103096D01*
X7386315Y2101818D01*
X7389189Y2098305D01*
X7390467Y2097666D01*
X7393022Y2093833D01*
X7397174Y2089680D01*
X7397813Y2088403D01*
X7399091Y2087125D01*
X7399410Y2086167D01*
X7400688Y2085528D01*
X7403563Y2082653D01*
X7404202Y2081376D01*
X7407076Y2077862D01*
X7408354Y2077223D01*
X7410909Y2073391D01*
X7412506Y2071155D01*
X7416339Y2067322D01*
X7416978Y2066044D01*
X7419214Y2063169D01*
X7420491Y2062531D01*
X7422089Y2060934D01*
X7422727Y2059656D01*
X7424005Y2058378D01*
X7424644Y2057101D01*
X7425602Y2056142D01*
X7426880Y2055504D01*
X7428477Y2053906D01*
X7430393Y2050712D01*
X7434865Y2046241D01*
X7435504Y2044963D01*
X7436462Y2043366D01*
X7437740Y2042727D01*
X7440614Y2039852D01*
X7441253Y2038575D01*
X7444128Y2035061D01*
X7447002Y2032187D01*
X7447641Y2030909D01*
X7452113Y2026437D01*
X7452752Y2025160D01*
X7455627Y2021646D01*
X7459140Y2018133D01*
X7459779Y2016855D01*
X7462654Y2013341D01*
X7463931Y2012703D01*
X7466167Y2010467D01*
X7466806Y2009189D01*
X7469042Y2006953D01*
X7470320Y2006315D01*
X7473194Y2003440D01*
X7473833Y2002162D01*
X7474791Y2001204D01*
X7480541Y1998010D01*
X7483735Y1994816D01*
X7486929Y1993538D01*
X7491401Y1990983D01*
X7493317Y1989066D01*
X7499705Y1987150D01*
X7503219Y1986192D01*
X7505774Y1985553D01*
X7509287Y1984594D01*
X7513759Y1983317D01*
X7516315Y1982678D01*
X7520148Y1983317D01*
X7522383Y1985553D01*
X7523661Y1990663D01*
X7524300Y2277494D01*
X7525897Y2279091D01*
X7528452Y2279730D01*
X7610541Y2280049D01*
X7612457Y2278771D01*
X7613735Y2275577D01*
X7614054Y1899631D01*
X7613096Y1897395D01*
X7611499Y1895798D01*
X7607027Y1895160D01*
X7494595Y1895798D01*
X7492678Y1896437D01*
X7486290Y1897076D01*
X7484373Y1897715D01*
X7475430Y1900270D01*
X7472875Y1900909D01*
X7467445Y1901867D01*
X7464890Y1902506D01*
X7459779Y1904422D01*
X7455627Y1906658D01*
X7451155Y1907936D01*
X7447002Y1909533D01*
X7445405Y1911130D01*
X7444128Y1911769D01*
X7442850Y1913046D01*
X7438378Y1914324D01*
X7435184Y1916241D01*
X7431990Y1919435D01*
X7427519Y1921990D01*
X7423047Y1926462D01*
X7421769Y1927101D01*
X7418256Y1929975D01*
X7414742Y1933489D01*
X7413464Y1934128D01*
X7410590Y1937002D01*
X7409951Y1938280D01*
X7408993Y1939238D01*
X7407715Y1939877D01*
X7404840Y1942752D01*
X7404202Y1944029D01*
X7401327Y1947543D01*
X7398452Y1950417D01*
X7397813Y1951695D01*
X7394939Y1955209D01*
X7391425Y1958722D01*
X7390786Y1960000D01*
X7389828Y1961597D01*
X7388550Y1962236D01*
X7385676Y1965110D01*
X7385037Y1966388D01*
X7382162Y1969902D01*
X7379926Y1972138D01*
X7379288Y1973415D01*
X7374177Y1978526D01*
X7373538Y1979803D01*
X7370663Y1983317D01*
X7369386Y1983956D01*
X7366831Y1987789D01*
X7365233Y1990024D01*
X7361401Y1993857D01*
X7360762Y1995135D01*
X7357887Y1998649D01*
X7356609Y1999287D01*
X7355651Y2000246D01*
X7355012Y2001523D01*
X7352138Y2005037D01*
X7350860Y2005675D01*
X7349263Y2007273D01*
X7348624Y2008550D01*
X7345749Y2012064D01*
X7342875Y2014939D01*
X7340958Y2018133D01*
X7337125Y2021965D01*
X7336486Y2023243D01*
X7335209Y2024521D01*
X7334890Y2025479D01*
X7333612Y2026118D01*
X7331376Y2028354D01*
X7330737Y2029631D01*
X7327862Y2033145D01*
X7324988Y2036020D01*
X7324349Y2037297D01*
X7321474Y2040811D01*
X7317961Y2044324D01*
X7317322Y2045602D01*
X7315725Y2047838D01*
X7314447Y2048476D01*
X7312850Y2050074D01*
X7312211Y2051351D01*
X7309337Y2054865D01*
X7307101Y2056462D01*
X7304545Y2060934D01*
X7300713Y2064128D01*
X7300074Y2065405D01*
X7297199Y2068919D01*
X7294325Y2071793D01*
X7292408Y2074988D01*
X7290811Y2077223D01*
X7289533Y2077862D01*
X7288575Y2078821D01*
X7287936Y2080098D01*
X7286659Y2081376D01*
X7286020Y2082653D01*
X7280909Y2087764D01*
X7280270Y2089042D01*
X7275160Y2094152D01*
X7273243Y2097346D01*
X7269410Y2101179D01*
X7268772Y2102457D01*
X7263661Y2107568D01*
X7263022Y2108845D01*
X7260786Y2111720D01*
X7259509Y2112358D01*
X7258550Y2113317D01*
X7257912Y2114594D01*
X7255037Y2118108D01*
X7252162Y2120983D01*
X7251523Y2122260D01*
X7248010Y2127051D01*
X7246732Y2127690D01*
X7245135Y2129287D01*
X7244496Y2130565D01*
X7241622Y2134079D01*
X7240344Y2134717D01*
X7238747Y2136314D01*
X7236192Y2140786D01*
X7233956Y2142383D01*
X7232998Y2143341D01*
X7232359Y2144619D01*
X7229484Y2148133D01*
X7226609Y2151007D01*
X7225971Y2152285D01*
X7220860Y2157395D01*
X7220221Y2158673D01*
X7217347Y2162187D01*
X7213833Y2165700D01*
X7213194Y2166978D01*
X7209042Y2171130D01*
X7207764Y2171769D01*
X7204251Y2174644D01*
X7202654Y2176241D01*
X7201376Y2176880D01*
X7196904Y2179435D01*
X7194349Y2181990D01*
X7193071Y2182629D01*
X7188600Y2184545D01*
X7179017Y2189017D01*
X7176462Y2189656D01*
X7165921Y2190614D01*
X7161769Y2190934D01*
X7158575Y2189017D01*
X7157617Y2188059D01*
X7157936Y1898354D01*
X7156659Y1896437D01*
X7152187Y1895160D01*
X7077125Y1895479D01*
X7069779Y1895160D01*
X7067543Y1896757D01*
X7066266Y1899951D01*
X7066585Y1909214D01*
X7066266Y2262801D01*
X7066904Y2264717D01*
X7066266Y2267273D01*
X7066904Y2276855D01*
X7068501Y2279730D01*
X7071056Y2280368D01*
X7083194Y2279730D01*
D02*
G37*
G36*
X7851056Y1804447D02*
X7852654Y1802850D01*
X7853292Y1800934D01*
X7851056Y1798059D01*
X7846585Y1797420D01*
X7841474Y1798059D01*
X7840197Y1799337D01*
X7839877Y1799656D01*
X7840516Y1803489D01*
X7842113Y1805086D01*
X7851056Y1804447D01*
D02*
G37*
G36*
X6867273D02*
X6868870Y1803489D01*
X6869509Y1800934D01*
X6868870Y1799017D01*
X6867912Y1798059D01*
X6863440Y1797420D01*
X6858968Y1798059D01*
X6856732Y1799656D01*
Y1800934D01*
Y1801572D01*
X6857371Y1803489D01*
X6860885Y1805086D01*
X6867273Y1804447D01*
D02*
G37*
G36*
X8677690D02*
X8678329Y1803808D01*
X8678649Y1803489D01*
X8679926Y1802211D01*
X8679287Y1799017D01*
X8678329Y1798059D01*
X8675774Y1797420D01*
X8672899Y1797101D01*
X8669705Y1797739D01*
X8667469Y1799337D01*
X8667150Y1802850D01*
X8668747Y1804447D01*
X8673857Y1805725D01*
X8677690Y1804447D01*
D02*
G37*
G36*
X8021302Y1804767D02*
X8023219Y1802850D01*
X8023857Y1800934D01*
X8020983Y1797420D01*
X8016192Y1797101D01*
X8013636Y1797739D01*
X8012039Y1798698D01*
X8011720Y1799017D01*
X8011081Y1800934D01*
X8011720Y1803489D01*
X8012678Y1804447D01*
X8015233Y1805086D01*
X8018108Y1805405D01*
X8021302Y1804767D01*
D02*
G37*
G36*
X8424717Y1805086D02*
X8427592Y1803489D01*
X8428231Y1800934D01*
Y1799656D01*
X8427912Y1799337D01*
X8426634Y1798059D01*
X8421523Y1796781D01*
X8417690Y1798059D01*
X8416093Y1799017D01*
X8415455Y1801572D01*
X8416413Y1803808D01*
X8417690Y1804447D01*
X8419607Y1805086D01*
X8422801Y1805725D01*
X8424717Y1805086D01*
D02*
G37*
G36*
X8275872Y1803169D02*
X8277789Y1801253D01*
X8278108Y1800934D01*
X8279386Y1797739D01*
X8277789Y1794226D01*
X8274595Y1792948D01*
X8268845Y1792310D01*
X8266929Y1792948D01*
X8212629Y1792310D01*
X8210393Y1790074D01*
X8209754Y1785602D01*
X8211671Y1782408D01*
X8214545Y1781450D01*
X8219017Y1780811D01*
X8223489Y1781450D01*
X8274595Y1780811D01*
X8276831Y1778575D01*
X8277469Y1776020D01*
X8276192Y1772826D01*
X8275233Y1771867D01*
X8270762Y1771228D01*
X8213268Y1770590D01*
X8210393Y1767715D01*
X8211032Y1762604D01*
X8211990Y1761646D01*
X8214545Y1761007D01*
X8275872Y1760368D01*
X8278747Y1758133D01*
X8279386Y1754300D01*
X8277150Y1750786D01*
X8274595Y1750147D01*
X8206880Y1750786D01*
X8201130Y1755258D01*
X8199533Y1756855D01*
X8198256Y1760049D01*
X8197617Y1762604D01*
X8198256Y1794545D01*
X8199533Y1795823D01*
X8200172Y1797101D01*
X8202727Y1799656D01*
X8203366Y1800934D01*
X8204324Y1801892D01*
X8207519Y1803169D01*
X8210074Y1803808D01*
X8275872Y1803169D01*
D02*
G37*
G36*
X6503784D02*
X6506020Y1800934D01*
X6506659Y1798378D01*
X6505700Y1794865D01*
X6504423Y1793587D01*
X6501867Y1792948D01*
X6496118Y1792310D01*
X6494202Y1792948D01*
X6441179Y1792310D01*
X6438944Y1790712D01*
X6438305Y1788157D01*
X6438944Y1783685D01*
X6440541Y1782088D01*
X6445651Y1780811D01*
X6455872Y1781450D01*
X6502506Y1780811D01*
X6504742Y1779214D01*
X6505381Y1776658D01*
X6504742Y1772826D01*
X6501229Y1771228D01*
X6483342D01*
X6441179Y1770590D01*
X6438944Y1768354D01*
X6438305Y1765798D01*
X6438944Y1763243D01*
X6440541Y1761646D01*
X6443096Y1761007D01*
X6503784Y1760368D01*
X6506020Y1758771D01*
X6506659Y1756216D01*
X6506020Y1752383D01*
X6504423Y1750786D01*
X6499951Y1750147D01*
X6434791Y1750786D01*
X6429042Y1755258D01*
X6427445Y1756855D01*
X6426167Y1760049D01*
X6425528Y1762604D01*
X6426167Y1794545D01*
X6427445Y1795823D01*
X6428084Y1797101D01*
X6430000Y1799017D01*
X6430639Y1800295D01*
X6432236Y1801892D01*
X6433514Y1802531D01*
X6435430Y1803169D01*
X6437985Y1803808D01*
X6503784Y1803169D01*
D02*
G37*
G36*
X7274202D02*
X7276437Y1800934D01*
X7277076Y1797101D01*
X7275160Y1793906D01*
X7273563Y1792310D01*
X7270049Y1791990D01*
X7266216Y1792629D01*
X7258870Y1792948D01*
X7256953Y1792310D01*
X7248649Y1792948D01*
X7246093Y1792310D01*
X7244816Y1791671D01*
X7243857Y1790712D01*
X7243219Y1788157D01*
X7242580Y1751105D01*
X7241622Y1750147D01*
X7239066Y1749509D01*
X7233317Y1750147D01*
X7231081Y1752383D01*
X7230762Y1755897D01*
X7231081Y1789435D01*
X7228845Y1791671D01*
X7226290Y1792310D01*
X7219902Y1792948D01*
X7213194Y1792629D01*
X7205209Y1792948D01*
X7203292Y1792310D01*
X7199460Y1791671D01*
X7196585Y1793268D01*
X7195307Y1796462D01*
Y1799656D01*
Y1800295D01*
X7196904Y1803169D01*
X7199460Y1803808D01*
X7274202Y1803169D01*
D02*
G37*
G36*
X8659803Y1789115D02*
X8660762Y1786241D01*
X8660123Y1781769D01*
X8658526Y1780172D01*
X8655970Y1779533D01*
X8651499Y1780172D01*
X8640639Y1779533D01*
X8638403Y1777936D01*
X8637764Y1775381D01*
X8638084Y1755258D01*
X8637445Y1752064D01*
X8635528Y1750147D01*
X8632973Y1749509D01*
X8629779Y1748870D01*
X8626585Y1750786D01*
X8625627Y1751744D01*
Y1752383D01*
X8624988Y1769631D01*
X8625627Y1771548D01*
X8626265Y1783046D01*
X8628501Y1785282D01*
X8629779Y1785921D01*
X8633292Y1788796D01*
X8634251Y1789754D01*
X8638722Y1790393D01*
X8657568Y1790712D01*
X8659803Y1789115D01*
D02*
G37*
G36*
X7471916Y1788796D02*
X7472555Y1784324D01*
X7470639Y1781130D01*
X7469681Y1780172D01*
X7467125Y1779533D01*
X7458821Y1780172D01*
X7438378Y1779533D01*
X7438059Y1779214D01*
X7437740Y1778894D01*
X7436143Y1777297D01*
X7435504Y1774742D01*
X7436143Y1762604D01*
X7437101Y1761646D01*
X7440295Y1760368D01*
X7468722Y1760688D01*
X7471916Y1758133D01*
X7472555Y1755577D01*
X7471916Y1751744D01*
X7470320Y1750147D01*
X7467764Y1749509D01*
X7455627Y1750147D01*
X7432629Y1750786D01*
X7429115Y1753661D01*
X7425283Y1756216D01*
X7424644Y1757494D01*
X7424005Y1759410D01*
X7423366Y1761965D01*
X7424005Y1777936D01*
X7424644Y1783046D01*
X7425602Y1784644D01*
X7426880Y1785282D01*
X7430393Y1788157D01*
X7431990Y1789754D01*
X7436462Y1790393D01*
X7468722Y1790712D01*
X7471916Y1788796D01*
D02*
G37*
G36*
X6924767Y1789754D02*
X6926364Y1788157D01*
X6926683Y1784644D01*
X6926044Y1782088D01*
X6924128Y1780172D01*
X6919656Y1779533D01*
X6917101Y1780172D01*
X6892826Y1779533D01*
X6890590Y1777297D01*
X6889951Y1774742D01*
X6890590Y1762604D01*
X6891548Y1761646D01*
X6894742Y1760368D01*
X6921892Y1760688D01*
X6924447Y1760049D01*
X6926364Y1758133D01*
X6927002Y1755577D01*
X6926364Y1751744D01*
X6924767Y1750147D01*
X6923489D01*
X6923170Y1749828D01*
X6917740Y1749509D01*
X6915823Y1750147D01*
X6886437Y1750786D01*
X6883882Y1753341D01*
X6882604Y1753980D01*
X6879091Y1756855D01*
X6877813Y1760049D01*
X6878452Y1783046D01*
X6880688Y1785282D01*
X6881966Y1785921D01*
X6885479Y1788796D01*
X6888993Y1790393D01*
X6922531Y1790712D01*
X6924767Y1789754D01*
D02*
G37*
G36*
X6716192Y1790074D02*
X6718428Y1788476D01*
X6719386Y1785602D01*
X6718747Y1783046D01*
X6716511Y1780811D01*
X6712039Y1779533D01*
X6707568Y1780172D01*
X6699263Y1779533D01*
X6698305Y1778575D01*
X6697027Y1773464D01*
X6697666Y1770909D01*
Y1760049D01*
Y1759410D01*
X6697027Y1751105D01*
X6696069Y1750147D01*
X6693514Y1749509D01*
X6687764Y1750147D01*
X6686167Y1751105D01*
X6684890Y1755577D01*
X6685528Y1780491D01*
X6688722Y1786241D01*
X6689681Y1787199D01*
X6690958Y1787838D01*
X6696708Y1790393D01*
X6713637Y1790712D01*
X6716192Y1790074D01*
D02*
G37*
G36*
X6642408Y1789754D02*
X6644005Y1788157D01*
X6644644Y1785602D01*
X6644005Y1781769D01*
X6643047Y1780811D01*
X6638575Y1779533D01*
X6636020Y1780172D01*
X6612383Y1779533D01*
X6609509Y1776658D01*
X6610148Y1762604D01*
X6611106Y1761646D01*
X6614300Y1760368D01*
X6644325Y1759730D01*
X6645921Y1758133D01*
X6646560Y1755577D01*
X6645921Y1752383D01*
X6644325Y1750786D01*
X6639214Y1749509D01*
X6630909Y1750147D01*
X6605995Y1750786D01*
X6600246Y1755258D01*
X6598649Y1756855D01*
X6597371Y1761327D01*
X6596732Y1765798D01*
X6597371Y1772187D01*
X6598010Y1781769D01*
X6601524Y1786560D01*
X6602801Y1787199D01*
X6604079Y1788476D01*
X6605356Y1789115D01*
X6607273Y1789754D01*
X6609828Y1790393D01*
X6622604D01*
X6640172Y1790712D01*
X6642408Y1789754D01*
D02*
G37*
G36*
X7930909Y1790393D02*
X7964128Y1789754D01*
X7965725Y1788796D01*
X7966364Y1787518D01*
X7972113Y1781769D01*
X7971474Y1756855D01*
X7968600Y1753980D01*
X7967322Y1753341D01*
X7964767Y1750786D01*
X7960295Y1750147D01*
X7927396Y1749828D01*
X7925798Y1750147D01*
X7925479Y1750467D01*
X7923243Y1752064D01*
X7920368Y1754939D01*
X7919091Y1759410D01*
X7919730Y1767715D01*
X7922604Y1771228D01*
X7926757Y1772187D01*
X7929951Y1772826D01*
X7935061Y1773464D01*
X7949435Y1773784D01*
X7951351Y1773145D01*
X7953268Y1773784D01*
X7958378Y1774422D01*
X7959337Y1775381D01*
X7958698Y1778575D01*
X7957101Y1780172D01*
X7952629Y1780811D01*
X7922285Y1780491D01*
X7920368Y1781769D01*
X7919730Y1784324D01*
X7920368Y1788796D01*
X7921966Y1790393D01*
X7924521Y1791032D01*
X7930909Y1790393D01*
D02*
G37*
G36*
X7764496Y1788157D02*
X7765774Y1784963D01*
X7766413Y1777936D01*
X7765774Y1776020D01*
X7766093Y1758452D01*
X7764816Y1755258D01*
X7763538Y1753980D01*
X7755233Y1750147D01*
X7752678Y1749509D01*
X7742457Y1750147D01*
X7720737Y1750786D01*
X7717224Y1753661D01*
X7713391Y1756216D01*
X7712113Y1759410D01*
X7711794Y1760368D01*
X7711474Y1760688D01*
X7711794Y1776978D01*
X7711474Y1784963D01*
X7713710Y1789115D01*
X7716265Y1789754D01*
X7720098Y1789115D01*
X7722973Y1786880D01*
X7723612Y1784324D01*
X7724251Y1779852D01*
X7723931Y1773784D01*
X7724251Y1770270D01*
X7723612Y1768354D01*
X7724251Y1763243D01*
X7725209Y1761646D01*
X7728403Y1760368D01*
X7752039Y1761007D01*
X7753637Y1762604D01*
X7754275Y1767715D01*
X7753637Y1769631D01*
X7754275Y1786880D01*
X7755553Y1788157D01*
X7755872Y1789115D01*
X7760344Y1790393D01*
X7764496Y1788157D01*
D02*
G37*
G36*
X8079115Y1789754D02*
X8083587Y1786560D01*
X8087739Y1782408D01*
X8089017Y1777297D01*
X8088378Y1759410D01*
X8085184Y1754939D01*
X8083587Y1753341D01*
X8082310Y1752703D01*
X8079115Y1750786D01*
X8076560Y1750147D01*
X8041425Y1750786D01*
X8035676Y1755258D01*
X8034717Y1756216D01*
X8033440Y1759410D01*
X8032801Y1763882D01*
X8033440Y1782408D01*
X8036315Y1785921D01*
X8040786Y1789115D01*
X8045258Y1790393D01*
X8073366D01*
X8079115Y1789754D01*
D02*
G37*
G36*
X7527174D02*
X7531646Y1786560D01*
X7535160Y1783685D01*
X7537076Y1779214D01*
X7536437Y1758771D01*
X7533563Y1755258D01*
X7531646Y1753341D01*
X7530368Y1752703D01*
X7527174Y1750786D01*
X7524619Y1750147D01*
X7490123Y1750786D01*
X7484054Y1754939D01*
X7483415Y1756216D01*
X7482138Y1757494D01*
X7481499Y1761965D01*
X7480860Y1763243D01*
Y1763882D01*
X7481499Y1781130D01*
X7484693Y1785602D01*
X7486929Y1787838D01*
X7488207Y1788476D01*
X7491401Y1789754D01*
X7493956Y1790393D01*
X7527174Y1789754D01*
D02*
G37*
G36*
X6772727D02*
X6778477Y1785282D01*
X6780713Y1783046D01*
X6781990Y1778575D01*
X6781351Y1758771D01*
X6778157Y1754300D01*
X6775921Y1752703D01*
X6770172Y1750147D01*
X6734398Y1750786D01*
X6733120Y1752064D01*
X6731843Y1752703D01*
X6728649Y1755897D01*
X6728329Y1756216D01*
X6725774Y1761965D01*
X6726413Y1780491D01*
X6729607Y1784963D01*
X6733120Y1788476D01*
X6736315Y1789754D01*
X6738870Y1790393D01*
X6772727Y1789754D01*
D02*
G37*
G36*
X7014202D02*
X7018673Y1786560D01*
X7019951Y1785921D01*
X7022826Y1783046D01*
X7023464Y1778575D01*
X7023145Y1774422D01*
X7023464Y1767076D01*
X7022826Y1765160D01*
X7023464Y1762604D01*
X7022826Y1756855D01*
X7021229Y1754619D01*
X7019951Y1753980D01*
X7015479Y1751425D01*
X7012285Y1750147D01*
X6978108Y1749828D01*
X6975872Y1750786D01*
X6970442Y1756216D01*
X6969803Y1758771D01*
X6970442Y1766437D01*
X6972359Y1769631D01*
X6973956Y1771228D01*
X6978427Y1772506D01*
X6980983Y1773145D01*
X6998870Y1773784D01*
X7009091Y1774422D01*
X7010688Y1776020D01*
X7010049Y1778575D01*
X7009091Y1779533D01*
X7003980Y1780811D01*
X6980025Y1780491D01*
X6979705Y1780172D01*
X6973637Y1781130D01*
X6971081Y1782408D01*
X6970442Y1784963D01*
X6971081Y1788157D01*
X6972678Y1789754D01*
X6975233Y1790393D01*
X7014202Y1789754D01*
D02*
G37*
G36*
X8733907D02*
X8739975Y1785602D01*
X8741253Y1784963D01*
X8741892Y1783685D01*
X8743169Y1780491D01*
X8743489Y1753341D01*
X8742211Y1750786D01*
X8737739Y1749509D01*
X8732629Y1750147D01*
X8731032Y1751744D01*
X8730393Y1754300D01*
X8730713Y1775061D01*
X8730074Y1777617D01*
X8729115Y1778575D01*
X8728796Y1779533D01*
X8726241Y1780172D01*
X8703243Y1779533D01*
X8702604D01*
X8700368Y1777936D01*
X8699091Y1773464D01*
X8699730Y1770909D01*
X8700049Y1753341D01*
X8698452Y1751105D01*
X8697494Y1750147D01*
X8693022Y1749509D01*
X8688550Y1750147D01*
X8686953Y1754300D01*
X8687592Y1758771D01*
X8687273Y1786560D01*
X8688231Y1788796D01*
X8689828Y1790393D01*
X8733907Y1789754D01*
D02*
G37*
G36*
X8610295Y1790074D02*
X8616044Y1784324D01*
X8616683Y1781769D01*
X8616044Y1773464D01*
X8613808Y1769312D01*
X8612531Y1768673D01*
X8609337Y1767395D01*
X8583784Y1766757D01*
X8577396Y1766118D01*
X8576437Y1765160D01*
X8575798Y1763243D01*
X8578034Y1760368D01*
X8582506Y1759730D01*
X8614447Y1759091D01*
X8615405Y1758133D01*
X8616044Y1755577D01*
X8615405Y1752383D01*
X8613808Y1750786D01*
X8608698Y1749509D01*
X8596560Y1750147D01*
X8572285Y1750786D01*
X8567813Y1753980D01*
X8566536Y1754619D01*
X8564300Y1756855D01*
X8563661Y1759410D01*
Y1763882D01*
Y1764521D01*
X8563022Y1767076D01*
X8563661Y1775381D01*
X8564300Y1784324D01*
X8565897Y1785921D01*
X8569091Y1787838D01*
X8572924Y1790393D01*
X8607739Y1790712D01*
X8610295Y1790074D01*
D02*
G37*
G36*
X8548649Y1789754D02*
X8551523Y1786880D01*
X8552162Y1785602D01*
X8553440Y1784324D01*
X8554717Y1781130D01*
X8554079Y1774103D01*
X8551204Y1768673D01*
X8546732Y1767395D01*
X8525012Y1766757D01*
X8515430Y1766118D01*
X8514472Y1765160D01*
X8515110Y1761327D01*
X8516069Y1760368D01*
X8520540Y1759730D01*
X8533956D01*
X8551843Y1759091D01*
X8553440Y1757494D01*
X8553759Y1754619D01*
X8552481Y1751425D01*
X8548010Y1749509D01*
X8532039Y1750147D01*
X8513194Y1749828D01*
X8510639Y1750467D01*
X8506806Y1753022D01*
X8503612Y1754939D01*
X8502973Y1756216D01*
X8502334Y1758133D01*
X8501695Y1761327D01*
X8502334Y1763243D01*
X8502015Y1770590D01*
X8502334Y1777297D01*
X8501695Y1779214D01*
X8502334Y1784324D01*
X8503931Y1785921D01*
X8508403Y1788476D01*
X8509680Y1789754D01*
X8512236Y1790393D01*
X8548649Y1789754D01*
D02*
G37*
G36*
X8481892Y1790074D02*
X8484447Y1789435D01*
X8488280Y1786880D01*
X8492113Y1783046D01*
X8493391Y1779852D01*
X8494029Y1773464D01*
X8493391Y1767076D01*
X8493710Y1752703D01*
X8492113Y1750467D01*
X8489238Y1749509D01*
X8485405D01*
X8482211Y1751425D01*
X8481253Y1752383D01*
X8480614Y1777297D01*
X8478378Y1779533D01*
X8473907Y1780172D01*
X8452187Y1779533D01*
X8450590Y1777936D01*
X8449951Y1775381D01*
X8450270Y1766757D01*
X8449951Y1757494D01*
X8450590Y1755577D01*
X8449951Y1752383D01*
X8448354Y1750147D01*
X8443882Y1749509D01*
X8440049Y1750147D01*
X8437813Y1752383D01*
X8438452Y1788796D01*
X8439410Y1789754D01*
X8441966Y1790393D01*
X8445479Y1790712D01*
X8481892Y1790074D01*
D02*
G37*
G36*
X7994791Y1802531D02*
X7996388Y1800934D01*
X7997027Y1792629D01*
X8001179Y1791032D01*
X8002457Y1790393D01*
X8004693Y1788157D01*
X8004054Y1781769D01*
X8001818Y1779533D01*
X7998305Y1778575D01*
X7997027Y1777936D01*
X7996388Y1775381D01*
X7996708Y1753341D01*
X7995749Y1751105D01*
X7994791Y1750147D01*
X7992236Y1749509D01*
X7987125Y1750147D01*
X7986167Y1751105D01*
X7984890Y1754300D01*
X7985209Y1775700D01*
X7984251Y1777936D01*
X7981376Y1780811D01*
X7980098Y1781450D01*
X7977862Y1783046D01*
X7977224Y1785602D01*
X7977862Y1788796D01*
X7978821Y1789754D01*
X7979460D01*
X7979779Y1790074D01*
X7982973Y1791351D01*
X7984251Y1791990D01*
X7985528Y1795184D01*
X7986167Y1801572D01*
X7989680Y1803169D01*
X7994791Y1802531D01*
D02*
G37*
G36*
X7909828Y1789754D02*
X7910786Y1788796D01*
X7911425Y1786241D01*
X7910786Y1781769D01*
X7909828Y1780811D01*
X7907273Y1780172D01*
X7877248Y1779533D01*
X7876290Y1778575D01*
X7875651Y1776020D01*
X7876290Y1761965D01*
X7876609Y1761646D01*
X7879803Y1760368D01*
X7909828Y1759730D01*
X7911425Y1758133D01*
X7912064Y1753661D01*
X7910148Y1750467D01*
X7907273Y1749509D01*
X7895135Y1750147D01*
X7876290Y1749828D01*
X7873096Y1750467D01*
X7870860Y1751425D01*
X7866388Y1753980D01*
X7864152Y1756216D01*
X7862875Y1761327D01*
X7863514Y1783046D01*
X7864791Y1784324D01*
X7865430Y1785602D01*
X7870541Y1788796D01*
X7874054Y1790393D01*
X7909828Y1789754D01*
D02*
G37*
G36*
X7408673Y1790074D02*
X7410909Y1788476D01*
X7412826Y1786560D01*
X7413784Y1786241D01*
X7414423Y1784963D01*
X7415700Y1781769D01*
X7415061Y1772826D01*
X7412187Y1768673D01*
X7407076Y1767395D01*
X7394939Y1766757D01*
X7376413Y1766118D01*
X7375455Y1765160D01*
X7374816Y1763243D01*
X7376413Y1761007D01*
X7380885Y1759730D01*
X7414103Y1759091D01*
X7415700Y1755577D01*
X7415061Y1752383D01*
X7414103Y1750786D01*
X7410909Y1749509D01*
X7394939Y1750147D01*
X7370663Y1750786D01*
X7368108Y1753341D01*
X7366831Y1753980D01*
X7365553Y1755258D01*
X7364275Y1755897D01*
X7362678Y1759410D01*
Y1777936D01*
Y1778575D01*
X7363317Y1783685D01*
X7364275Y1784644D01*
X7365553Y1785282D01*
X7366831Y1786560D01*
X7368108Y1787199D01*
X7370663Y1789754D01*
X7373219Y1790393D01*
X7405479Y1790712D01*
X7408673Y1790074D01*
D02*
G37*
G36*
X7350860Y1804447D02*
X7352138Y1803808D01*
X7354373Y1801572D01*
X7353735Y1795823D01*
Y1795184D01*
X7353096Y1758133D01*
X7353735Y1756216D01*
X7353096Y1751105D01*
X7352138Y1750147D01*
X7349582Y1749509D01*
X7343833Y1750147D01*
X7342236Y1751744D01*
X7341597Y1754300D01*
X7341278Y1799975D01*
X7342236Y1802211D01*
X7343833Y1803808D01*
X7348944Y1805086D01*
X7350860Y1804447D01*
D02*
G37*
G36*
X7325946Y1789754D02*
X7329460Y1786880D01*
X7330737Y1783685D01*
X7331376Y1781130D01*
X7330737Y1771548D01*
X7328501Y1768673D01*
X7323391Y1767395D01*
X7307420Y1766757D01*
X7293366Y1766118D01*
X7291769Y1764521D01*
X7292408Y1761327D01*
X7295921Y1759730D01*
X7327543Y1760049D01*
X7330098Y1758771D01*
X7331376Y1754939D01*
X7330737Y1753022D01*
X7330098Y1751744D01*
X7328501Y1750147D01*
X7328182Y1749828D01*
X7322113Y1749509D01*
X7320197Y1750147D01*
X7293047Y1749828D01*
X7286978Y1750786D01*
X7285700Y1752064D01*
X7284423Y1752703D01*
X7281548Y1754939D01*
X7280909Y1756216D01*
X7279632Y1759410D01*
X7279312Y1762924D01*
X7279632Y1776658D01*
X7278993Y1778575D01*
X7279951Y1782727D01*
X7283145Y1786560D01*
X7285061Y1788476D01*
X7288256Y1789754D01*
X7290811Y1790393D01*
X7325946Y1789754D01*
D02*
G37*
G36*
X7150270Y1804447D02*
X7152506Y1802211D01*
X7153145Y1799656D01*
X7152506Y1756855D01*
X7149632Y1753980D01*
X7147076Y1753341D01*
X7142604Y1750147D01*
X7137494Y1749509D01*
X7136855D01*
X7130467Y1750147D01*
X7109066Y1749828D01*
X7106511Y1750467D01*
X7102678Y1753022D01*
X7099165Y1755258D01*
X7097568Y1756855D01*
X7096929Y1761327D01*
X7097568Y1765798D01*
X7097248Y1782088D01*
X7098207Y1784324D01*
X7100442Y1786560D01*
X7108747Y1790393D01*
X7138772Y1791032D01*
X7140368Y1792629D01*
X7141007Y1802850D01*
X7141966Y1803808D01*
X7145160Y1805086D01*
X7150270Y1804447D01*
D02*
G37*
G36*
X7039115Y1790393D02*
X7077445Y1789754D01*
X7081278Y1787199D01*
X7082555Y1786560D01*
X7085430Y1784324D01*
X7086708Y1779214D01*
X7086388Y1765479D01*
X7086708Y1753022D01*
X7084472Y1750147D01*
X7080000Y1749509D01*
X7075528Y1750147D01*
X7074570Y1751105D01*
X7073931Y1753661D01*
X7074251Y1775061D01*
X7073612Y1777617D01*
X7072334Y1779533D01*
X7069779Y1780172D01*
X7047420D01*
X7044226Y1778256D01*
X7043268Y1777297D01*
X7042629Y1751744D01*
X7041032Y1750147D01*
X7038477Y1749509D01*
X7036241Y1749189D01*
X7033047Y1749828D01*
X7031769Y1751105D01*
X7031130Y1753661D01*
X7030811Y1787199D01*
X7031769Y1789435D01*
X7032727Y1790393D01*
X7037199Y1791032D01*
X7039115Y1790393D01*
D02*
G37*
G36*
X6868231Y1788157D02*
X6868870Y1785602D01*
X6868231Y1751105D01*
X6864718Y1749509D01*
X6858968Y1750147D01*
X6856732Y1752383D01*
X6857371Y1787518D01*
X6858968Y1789115D01*
X6859607D01*
X6859926Y1789435D01*
X6865995Y1789754D01*
X6868231Y1788157D01*
D02*
G37*
G36*
X6668280Y1802211D02*
X6670197Y1800295D01*
X6670836Y1792629D01*
X6671794Y1791671D01*
X6677862Y1789435D01*
X6679140Y1786241D01*
Y1785602D01*
X6678501Y1782408D01*
X6676904Y1780811D01*
X6672752Y1779214D01*
X6671474Y1778575D01*
X6670197Y1775381D01*
X6670516Y1767395D01*
X6670197Y1758133D01*
X6670836Y1756216D01*
X6670197Y1752383D01*
X6669238Y1750786D01*
X6666044Y1749509D01*
X6660295Y1750147D01*
X6658698Y1751744D01*
X6658059Y1754300D01*
X6658698Y1764521D01*
X6658059Y1777297D01*
X6656462Y1779533D01*
X6651990Y1782088D01*
X6651032Y1783046D01*
X6650713Y1785921D01*
X6651671Y1788157D01*
X6653268Y1789754D01*
X6657420Y1791990D01*
X6658698Y1795184D01*
X6659337Y1801572D01*
X6660295Y1802531D01*
X6664767Y1803169D01*
X6668280Y1802211D01*
D02*
G37*
G36*
X6582998Y1789754D02*
X6587150Y1786880D01*
X6588428Y1783685D01*
X6589066Y1781130D01*
X6588108Y1773784D01*
X6587469Y1771228D01*
X6585872Y1768993D01*
X6582998Y1768034D01*
X6578526Y1767395D01*
X6570221Y1766757D01*
X6550418Y1766118D01*
X6548821Y1764521D01*
X6549460Y1761965D01*
X6551056Y1760368D01*
X6553612Y1759730D01*
X6585233Y1760049D01*
X6587469Y1758452D01*
X6588428Y1757494D01*
X6587789Y1751105D01*
X6586831Y1750147D01*
X6584275Y1749509D01*
X6572138Y1750147D01*
X6550098Y1749828D01*
X6544668Y1750786D01*
X6539558Y1754619D01*
X6539238Y1754939D01*
X6536683Y1760688D01*
X6536364Y1764840D01*
X6536683Y1775381D01*
X6536044Y1777297D01*
X6537002Y1782088D01*
X6539558Y1785921D01*
X6543071Y1788796D01*
X6547224Y1790393D01*
X6582998Y1789754D01*
D02*
G37*
G36*
X8677051D02*
X8678010Y1788796D01*
X8679287Y1783685D01*
X8678649Y1751744D01*
X8677690Y1750147D01*
X8674496Y1748870D01*
X8670025Y1749509D01*
X8667789Y1751105D01*
X8667150Y1753661D01*
X8667789Y1784324D01*
Y1784963D01*
X8668747Y1788476D01*
X8670025Y1789754D01*
X8672580Y1790393D01*
X8677051Y1789754D01*
D02*
G37*
G36*
X8425356D02*
X8426953Y1788157D01*
X8427592Y1785602D01*
X8427912Y1777617D01*
X8427592Y1757494D01*
X8428231Y1755577D01*
Y1754939D01*
X8426953Y1751105D01*
X8425356Y1749509D01*
X8422801Y1748870D01*
X8418968Y1749509D01*
X8416732Y1751744D01*
X8416093Y1756216D01*
X8416732Y1788157D01*
X8418329Y1789754D01*
X8422801Y1790393D01*
X8425356Y1789754D01*
D02*
G37*
G36*
X8301425Y1790393D02*
X8334005Y1789754D01*
X8336560Y1787199D01*
X8341032Y1784644D01*
X8341990Y1783685D01*
X8342629Y1777936D01*
X8341990Y1776020D01*
X8342310Y1752703D01*
X8340713Y1750467D01*
X8339754Y1749509D01*
X8335283Y1748870D01*
X8332088Y1750147D01*
X8330491Y1751744D01*
X8329853Y1756216D01*
X8330172Y1774422D01*
X8329533Y1777617D01*
X8328256Y1779533D01*
X8325700Y1780172D01*
X8317396D01*
X8300786Y1779533D01*
X8299828Y1778575D01*
X8299189Y1774103D01*
X8298550Y1751105D01*
X8296953Y1749509D01*
X8292482Y1748870D01*
X8289926Y1749509D01*
X8287690Y1751744D01*
X8287051Y1756216D01*
X8286732Y1787199D01*
X8287690Y1789435D01*
X8288649Y1790393D01*
X8291204Y1791032D01*
X8301425Y1790393D01*
D02*
G37*
G36*
X8111695D02*
X8143636Y1789754D01*
X8148108Y1786560D01*
X8149386Y1785921D01*
X8151622Y1784324D01*
X8152899Y1781130D01*
X8152261Y1751744D01*
X8150663Y1750147D01*
X8146192Y1748870D01*
X8142998Y1749509D01*
X8140762Y1751105D01*
X8140123Y1755577D01*
X8140442Y1775061D01*
X8139803Y1777617D01*
X8138526Y1779533D01*
X8135971Y1780172D01*
X8120639D01*
X8111056Y1779533D01*
X8110098Y1778575D01*
X8109460Y1776020D01*
X8108821Y1751105D01*
X8107862Y1750147D01*
X8104668Y1748870D01*
X8099558Y1749509D01*
X8097322Y1751744D01*
X8097641Y1767395D01*
X8097322Y1770909D01*
X8097961Y1772826D01*
X8096683Y1786880D01*
X8098599Y1790074D01*
X8101474Y1791032D01*
X8111695Y1790393D01*
D02*
G37*
G36*
X8020983Y1789754D02*
X8022580Y1788157D01*
X8023219Y1785602D01*
Y1778575D01*
Y1777936D01*
X8022580Y1751105D01*
X8020983Y1749509D01*
X8016511Y1748870D01*
X8012359Y1750467D01*
X8011081Y1753661D01*
X8010762Y1775061D01*
X8011401Y1780172D01*
X8012039Y1785921D01*
X8012678Y1788476D01*
X8013956Y1789754D01*
X8016511Y1790393D01*
X8020983Y1789754D01*
D02*
G37*
G36*
X7851056Y1789115D02*
X7852015Y1788157D01*
X7852654Y1785602D01*
X7852973Y1753980D01*
X7851695Y1750786D01*
X7848501Y1749509D01*
X7844668Y1748870D01*
X7841474Y1750786D01*
X7840516Y1754300D01*
X7840835Y1775700D01*
X7840516Y1777936D01*
Y1778575D01*
X7841155Y1788157D01*
X7842113Y1789115D01*
X7844668Y1789754D01*
X7851056Y1789115D01*
D02*
G37*
G36*
X7789091Y1790393D02*
X7822949Y1789754D01*
X7826462Y1786880D01*
X7830295Y1784324D01*
X7831573Y1783046D01*
X7832211Y1780491D01*
X7831573Y1750467D01*
X7828059Y1748870D01*
X7823268Y1749828D01*
X7821032Y1751425D01*
X7820074Y1752383D01*
X7819435Y1756855D01*
X7820074Y1759410D01*
X7819435Y1777297D01*
X7817199Y1779533D01*
X7812727Y1780172D01*
X7791007Y1779533D01*
X7790049Y1778575D01*
X7789410Y1776020D01*
X7789091Y1773784D01*
X7789410Y1765798D01*
Y1765160D01*
X7788772Y1751105D01*
X7787813Y1750147D01*
X7785258Y1749509D01*
X7778870Y1750147D01*
X7776634Y1752383D01*
X7777273Y1788796D01*
X7778231Y1789754D01*
X7782703Y1791032D01*
X7789091Y1790393D01*
D02*
G37*
G36*
X7639607D02*
X7694545Y1789754D01*
X7696462Y1787838D01*
X7697739Y1787199D01*
X7699017Y1785921D01*
X7700295Y1785282D01*
X7702531Y1783685D01*
X7703808Y1779214D01*
X7703170Y1751105D01*
X7701573Y1749509D01*
X7697101Y1748870D01*
X7692310Y1751105D01*
X7691032Y1754300D01*
X7691351Y1776339D01*
X7688796Y1779533D01*
X7684324Y1780172D01*
X7674742Y1779533D01*
X7673145Y1777936D01*
X7672506Y1775381D01*
X7673145Y1763243D01*
X7672506Y1751744D01*
X7670270Y1749509D01*
X7662604Y1750147D01*
X7661007Y1751744D01*
X7660368Y1754300D01*
X7660688Y1776339D01*
X7659410Y1778894D01*
X7654939Y1780172D01*
X7647592Y1780491D01*
X7645037Y1779852D01*
X7643120Y1778575D01*
X7642482Y1776020D01*
Y1765160D01*
Y1764521D01*
X7641843Y1751105D01*
X7640885Y1750147D01*
X7636413Y1748870D01*
X7634496Y1749509D01*
X7631941Y1750147D01*
X7630344Y1751744D01*
X7629705Y1754300D01*
X7629386Y1786560D01*
X7630344Y1788796D01*
X7631941Y1790393D01*
X7637690Y1791032D01*
X7639607Y1790393D01*
D02*
G37*
G36*
X7557838D02*
X7610221Y1789754D01*
X7614693Y1786560D01*
X7617887Y1784644D01*
X7618845Y1781769D01*
X7619484Y1777297D01*
X7618845Y1775381D01*
X7619165Y1755258D01*
X7618526Y1752064D01*
X7617248Y1750147D01*
X7612776Y1748870D01*
X7609582Y1749509D01*
X7607346Y1751105D01*
X7606708Y1753661D01*
X7607027Y1774422D01*
X7606388Y1777617D01*
X7605111Y1779533D01*
X7602555Y1780172D01*
X7590418Y1779533D01*
X7588821Y1777936D01*
X7588182Y1775381D01*
X7588821Y1761327D01*
X7588182Y1752383D01*
X7586585Y1750147D01*
X7581474Y1748870D01*
X7577322Y1750467D01*
X7576044Y1753661D01*
X7575405Y1777936D01*
X7574447Y1779533D01*
X7571892Y1780172D01*
X7559754Y1779533D01*
X7558157Y1777936D01*
X7557519Y1775381D01*
X7556880Y1751105D01*
X7555921Y1750147D01*
X7552727Y1748870D01*
X7548256Y1749509D01*
X7546020Y1751105D01*
X7545381Y1753661D01*
Y1754300D01*
Y1754939D01*
X7546020Y1767076D01*
X7545700Y1789115D01*
X7546978Y1790393D01*
X7549533Y1791032D01*
X7557838Y1790393D01*
D02*
G37*
G36*
X6805307D02*
X6837887Y1789754D01*
X6840442Y1787199D01*
X6844914Y1784644D01*
X6846511Y1780491D01*
X6845872Y1768354D01*
X6846192Y1755258D01*
X6845553Y1752064D01*
X6844275Y1750147D01*
X6841081Y1748870D01*
X6836609Y1749509D01*
X6834373Y1751105D01*
X6833735Y1755577D01*
X6833096Y1778575D01*
X6832138Y1779533D01*
X6829582Y1780172D01*
X6804668Y1779533D01*
X6803071Y1777936D01*
X6802752Y1773784D01*
X6803071Y1753022D01*
X6800197Y1749509D01*
X6795725Y1748870D01*
X6792531Y1750147D01*
X6790934Y1751744D01*
Y1753661D01*
Y1754300D01*
X6790614Y1787199D01*
X6791573Y1789435D01*
X6792531Y1790393D01*
X6795086Y1791032D01*
X6805307Y1790393D01*
D02*
G37*
G36*
X6524865Y1804447D02*
X6527101Y1802211D01*
X6527420Y1798059D01*
X6526781Y1781450D01*
X6526462Y1762604D01*
X6527101Y1760688D01*
Y1756216D01*
Y1755577D01*
X6526462Y1751105D01*
X6525504Y1750147D01*
X6522310Y1748870D01*
X6517838Y1749509D01*
X6516241Y1750467D01*
X6514963Y1753661D01*
X6515602Y1802850D01*
X6516560Y1803808D01*
X6519754Y1805086D01*
X6524865Y1804447D01*
D02*
G37*
G36*
X8399165Y1789754D02*
X8400442Y1788476D01*
X8401720Y1787838D01*
X8404275Y1785282D01*
X8405553Y1784644D01*
X8407150Y1781769D01*
X8406511Y1745356D01*
X8403636Y1741843D01*
X8402039Y1739607D01*
X8400442Y1738010D01*
X8395332Y1736732D01*
X8356683Y1736413D01*
X8354447Y1738010D01*
X8353489Y1738968D01*
X8354128Y1744717D01*
X8355086Y1745675D01*
X8359558Y1746953D01*
X8364029Y1746315D01*
X8391499Y1746953D01*
X8392776Y1748231D01*
X8393735Y1748550D01*
X8395012Y1751744D01*
X8393096Y1754939D01*
X8392138Y1755897D01*
X8385749Y1756535D01*
X8360516Y1756216D01*
X8357322Y1756855D01*
X8355086Y1758452D01*
X8354128Y1759410D01*
X8353489Y1760688D01*
X8352211Y1761965D01*
X8350934Y1765160D01*
X8351573Y1772826D01*
Y1773464D01*
X8350934Y1777936D01*
X8351573Y1783046D01*
X8356364Y1787838D01*
X8357641Y1788476D01*
X8362113Y1790393D01*
X8399165Y1789754D01*
D02*
G37*
G36*
X8800983D02*
X8802261Y1788476D01*
X8803538Y1787838D01*
X8808010Y1784644D01*
X8808968Y1781769D01*
X8809607Y1779214D01*
X8808968Y1777297D01*
X8808329Y1743440D01*
X8804816Y1739926D01*
X8803538Y1739287D01*
X8802261Y1738010D01*
X8797789Y1736732D01*
X8760418Y1736413D01*
X8757862Y1737051D01*
X8756904Y1738010D01*
X8755946Y1738329D01*
X8754668Y1741523D01*
X8755307Y1744079D01*
X8756904Y1745675D01*
X8759459Y1746315D01*
X8790762D01*
X8794595Y1746953D01*
X8796192Y1748550D01*
X8795553Y1754939D01*
X8794595Y1755897D01*
X8792039Y1756535D01*
X8762334Y1756216D01*
X8759779Y1756855D01*
X8755946Y1759410D01*
X8754029Y1761327D01*
X8753391Y1763882D01*
X8753071Y1780811D01*
X8753710Y1784005D01*
X8755627Y1785921D01*
X8760098Y1788476D01*
X8761376Y1789754D01*
X8763931Y1790393D01*
X8800983Y1789754D01*
D02*
G37*
%LPC*%
G36*
X7955823Y1766757D02*
X7933464Y1766118D01*
X7931867Y1764521D01*
X7932506Y1761327D01*
X7936658Y1759730D01*
X7947519D01*
X7957101Y1760368D01*
X7959337Y1761965D01*
X7959975Y1764521D01*
X7958378Y1766118D01*
X7955823Y1766757D01*
D02*
G37*
G36*
X8069533Y1780172D02*
X8047813Y1779533D01*
X8045578Y1777297D01*
X8044939Y1772826D01*
X8045578Y1770909D01*
X8044939Y1765160D01*
X8046855Y1761965D01*
X8047813Y1761007D01*
X8050368Y1760368D01*
X8074005Y1761007D01*
X8076241Y1763243D01*
X8076880Y1765798D01*
X8076560Y1771228D01*
X8076880Y1773464D01*
Y1774103D01*
X8076241Y1777297D01*
X8074005Y1779533D01*
X8069533Y1780172D01*
D02*
G37*
G36*
X7519509D02*
X7495872Y1779533D01*
X7494275Y1777936D01*
X7493637Y1775381D01*
X7494275Y1762604D01*
X7495872Y1761007D01*
X7500344Y1760368D01*
X7522064Y1761007D01*
X7524300Y1763243D01*
X7524939Y1765798D01*
X7524300Y1777297D01*
X7523022Y1778575D01*
X7522703Y1778894D01*
X7519509Y1780172D01*
D02*
G37*
G36*
X6762506D02*
X6740786Y1779533D01*
X6738550Y1777297D01*
X6737912Y1773464D01*
Y1772826D01*
X6738550Y1770909D01*
X6737912Y1765160D01*
X6739828Y1761965D01*
X6740786Y1761007D01*
X6745258Y1760368D01*
X6766978Y1761007D01*
X6769214Y1762604D01*
X6770491Y1767076D01*
X6769853Y1768993D01*
X6769214Y1777297D01*
X6766978Y1779533D01*
X6762506Y1780172D01*
D02*
G37*
G36*
X7006536Y1766757D02*
X6984816Y1766118D01*
X6984177Y1765479D01*
X6983538D01*
X6982580Y1764521D01*
X6983219Y1761327D01*
X6987371Y1759730D01*
X7008452Y1760368D01*
X7010049Y1761327D01*
X7010688Y1763882D01*
X7010049Y1765798D01*
X7006536Y1766757D01*
D02*
G37*
G36*
X8597199Y1780811D02*
X8594644D01*
X8578673Y1780172D01*
X8576437Y1778575D01*
X8577076Y1774742D01*
X8579951Y1773784D01*
X8601671Y1774422D01*
X8603268Y1775381D01*
X8603907Y1777936D01*
X8602310Y1779533D01*
X8597199Y1780811D01*
D02*
G37*
G36*
X8535872D02*
X8516069Y1780172D01*
X8514472Y1778575D01*
X8515110Y1774742D01*
X8516069Y1773784D01*
X8534914Y1773464D01*
X8538427Y1773784D01*
X8538747Y1774103D01*
X8540983Y1775700D01*
X8541941Y1776658D01*
X8540344Y1779533D01*
X8535872Y1780811D01*
D02*
G37*
G36*
X7396855D02*
X7378329Y1780172D01*
X7375455Y1777936D01*
X7376093Y1775381D01*
X7377052Y1774422D01*
X7379607Y1773784D01*
X7401327Y1774422D01*
X7402924Y1776020D01*
X7403563Y1777297D01*
Y1777936D01*
X7401966Y1779533D01*
X7396855Y1780811D01*
D02*
G37*
G36*
X7313808D02*
X7294005Y1780172D01*
X7292408Y1778575D01*
X7291769Y1776020D01*
X7294005Y1773784D01*
X7300074Y1773464D01*
X7309975Y1773784D01*
X7311892Y1773145D01*
X7316683Y1774103D01*
X7318600Y1776020D01*
X7319238Y1777297D01*
Y1777936D01*
X7318280Y1779533D01*
X7313808Y1780811D01*
D02*
G37*
G36*
X7136216Y1780172D02*
X7111302Y1779533D01*
X7110983Y1779214D01*
X7110663Y1778894D01*
X7109705Y1776020D01*
X7110344Y1761965D01*
X7111302Y1761007D01*
X7113858Y1760368D01*
X7138772Y1761007D01*
X7139730Y1761965D01*
X7141007Y1767076D01*
X7140368Y1768993D01*
X7139730Y1778575D01*
X7138772Y1779533D01*
X7136216Y1780172D01*
D02*
G37*
G36*
X6568305Y1780811D02*
X6551695Y1780172D01*
X6550098Y1779214D01*
X6549460Y1776658D01*
X6550098Y1774742D01*
X6552973Y1773784D01*
X6556806D01*
X6571179Y1773464D01*
X6573735Y1774103D01*
X6575651Y1775381D01*
X6576290Y1777936D01*
X6575651Y1779214D01*
X6574693Y1780172D01*
X6568305Y1780811D01*
D02*
G37*
G36*
X8387027Y1780172D02*
X8366585Y1779533D01*
X8363710Y1777297D01*
X8363071Y1776020D01*
Y1775381D01*
X8363710Y1769631D01*
X8364668Y1768034D01*
X8367862Y1766757D01*
X8372334Y1766118D01*
X8380639Y1766757D01*
X8387027Y1766118D01*
X8392776Y1767395D01*
X8394373Y1768993D01*
X8395012Y1771548D01*
X8394373Y1776658D01*
X8391499Y1779533D01*
X8387027Y1780172D01*
D02*
G37*
G36*
X8792039D02*
X8779263D01*
X8768403Y1779533D01*
X8766167Y1777297D01*
X8765528Y1774742D01*
X8766167Y1768354D01*
X8767125Y1767395D01*
X8772236Y1766118D01*
X8786929Y1766757D01*
X8788845Y1766118D01*
X8794595Y1766757D01*
X8795553Y1767715D01*
X8796831Y1772826D01*
X8795872Y1777617D01*
X8794595Y1779533D01*
X8792039Y1780172D01*
D02*
G37*
%LPD*%
D23*
X8710116Y4598909D02*
G03*
X8617012Y4399247I158132J-195277D01*
G01*
Y4400753D02*
G03*
X8710116Y4201091I251236J-4385D01*
G01*
Y5748909D02*
G03*
X8617012Y5549247I158132J-195277D01*
G01*
Y5550753D02*
G03*
X8710116Y5351091I251236J-4385D01*
G01*
Y3548909D02*
G03*
X8617012Y3349247I158132J-195277D01*
G01*
Y3350753D02*
G03*
X8710116Y3151091I251236J-4385D01*
G01*
X682500Y9679500D02*
X1317500D01*
X682500Y8720500D02*
X1317500D01*
X3819000Y9373000D02*
X4581000D01*
X3819000D02*
Y9627000D01*
X4581000D01*
Y9373000D02*
Y9627000D01*
X5432500Y9629500D02*
X6067500D01*
X5432500Y8670500D02*
X6067500D01*
X5219000Y323000D02*
X5981000D01*
X5219000D02*
Y577000D01*
X5981000D01*
Y323000D02*
Y577000D01*
X6832500Y9629500D02*
X7467500D01*
X6832500Y8670500D02*
X7467500D01*
X8282500Y9629500D02*
X8917500D01*
X8282500Y8670500D02*
X8917500D01*
D24*
X3427000Y8350000D02*
G03*
X3300000Y8223000I0J-127000D01*
G01*
X4623000Y8350000D02*
G03*
X4750000Y8477000I0J127000D01*
G01*
X3427000Y8350000D02*
X3500000D01*
X3300000Y100000D02*
Y427000D01*
Y8223000D01*
X3500000Y8350000D02*
X4623000D01*
X4750000Y8477000D02*
Y9900000D01*
X3900000Y9226175D02*
X3849217D01*
X3874608D01*
Y9099216D01*
X3849217Y9073825D01*
X3823825D01*
X3798433Y9099216D01*
X3950784Y9073825D02*
X4001567D01*
X3976176D01*
Y9226175D01*
X3950784Y9200783D01*
X6175368Y3341981D02*
X6108723D01*
X6075400Y3308658D01*
Y3175368D01*
X6108723Y3142045D01*
X6175368D01*
X6208690Y3175368D01*
Y3308658D01*
X6175368Y3341981D01*
X6275336Y3275335D02*
Y3175368D01*
X6308658Y3142045D01*
X6408626D01*
Y3275335D01*
X6508594Y3308658D02*
Y3275335D01*
X6475271D01*
X6541916D01*
X6508594D01*
Y3175368D01*
X6541916Y3142045D01*
X6641884Y3075400D02*
Y3275335D01*
X6741852D01*
X6775174Y3242013D01*
Y3175368D01*
X6741852Y3142045D01*
X6641884D01*
X6841820Y3275335D02*
Y3175368D01*
X6875142Y3142045D01*
X6975110D01*
Y3275335D01*
X7075078Y3308658D02*
Y3275335D01*
X7041755D01*
X7108400D01*
X7075078D01*
Y3175368D01*
X7108400Y3142045D01*
X4075400Y2425335D02*
X4175368D01*
X4125384D01*
Y2275384D01*
X4225351Y2375351D02*
Y2275384D01*
Y2325368D01*
X4250343Y2350360D01*
X4275335Y2375351D01*
X4300327D01*
X4375303Y2275384D02*
X4425287D01*
X4400295D01*
Y2375351D01*
X4375303D01*
X4525254D02*
X4575238D01*
X4600230Y2350360D01*
Y2275384D01*
X4525254D01*
X4500263Y2300376D01*
X4525254Y2325368D01*
X4600230D01*
X4650214Y2275384D02*
Y2375351D01*
X4725190D01*
X4750182Y2350360D01*
Y2275384D01*
X4850149Y2225400D02*
X4875141D01*
X4900133Y2250392D01*
Y2375351D01*
X4825157D01*
X4800165Y2350360D01*
Y2300376D01*
X4825157Y2275384D01*
X4900133D01*
X4950117Y2375351D02*
Y2300376D01*
X4975109Y2275384D01*
X5050084D01*
Y2375351D01*
X5100068Y2275384D02*
X5150052D01*
X5125060D01*
Y2425335D01*
X5100068D01*
X5250020Y2375351D02*
X5300004D01*
X5324995Y2350360D01*
Y2275384D01*
X5250020D01*
X5225028Y2300376D01*
X5250020Y2325368D01*
X5324995D01*
X5374979Y2375351D02*
Y2275384D01*
Y2325368D01*
X5399971Y2350360D01*
X5424963Y2375351D01*
X5449955D01*
X4175368Y2650343D02*
X4150376Y2675335D01*
X4100392D01*
X4075400Y2650343D01*
Y2625351D01*
X4100392Y2600360D01*
X4150376D01*
X4175368Y2575368D01*
Y2550376D01*
X4150376Y2525384D01*
X4100392D01*
X4075400Y2550376D01*
X4325319Y2475400D02*
Y2625351D01*
X4250343D01*
X4225351Y2600360D01*
Y2550376D01*
X4250343Y2525384D01*
X4325319D01*
X4375303Y2625351D02*
Y2550376D01*
X4400295Y2525384D01*
X4475270D01*
Y2625351D01*
X4550246D02*
X4600230D01*
X4625222Y2600360D01*
Y2525384D01*
X4550246D01*
X4525254Y2550376D01*
X4550246Y2575368D01*
X4625222D01*
X4675206Y2625351D02*
Y2525384D01*
Y2575368D01*
X4700198Y2600360D01*
X4725190Y2625351D01*
X4750182D01*
X4900133Y2525384D02*
X4850149D01*
X4825157Y2550376D01*
Y2600360D01*
X4850149Y2625351D01*
X4900133D01*
X4925125Y2600360D01*
Y2575368D01*
X4825157D01*
X4175368Y2900360D02*
X4150376Y2925352D01*
X4100392D01*
X4075400Y2900360D01*
Y2875368D01*
X4100392Y2850376D01*
X4150376D01*
X4175368Y2825384D01*
Y2800392D01*
X4150376Y2775400D01*
X4100392D01*
X4075400Y2800392D01*
X4225351Y2775400D02*
X4275335D01*
X4250343D01*
Y2875368D01*
X4225351D01*
X4350311Y2775400D02*
Y2875368D01*
X4425287D01*
X4450279Y2850376D01*
Y2775400D01*
X4575238D02*
X4525254D01*
X4500263Y2800392D01*
Y2850376D01*
X4525254Y2875368D01*
X4575238D01*
X4600230Y2850376D01*
Y2825384D01*
X4500263D01*
X4175368Y3150360D02*
X4150376Y3175352D01*
X4100392D01*
X4075400Y3150360D01*
Y3125368D01*
X4100392Y3100376D01*
X4150376D01*
X4175368Y3075384D01*
Y3050392D01*
X4150376Y3025400D01*
X4100392D01*
X4075400Y3050392D01*
X4250343Y3125368D02*
X4300327D01*
X4325319Y3100376D01*
Y3025400D01*
X4250343D01*
X4225351Y3050392D01*
X4250343Y3075384D01*
X4325319D01*
X4375303Y3125368D02*
Y3050392D01*
X4400295Y3025400D01*
X4425287Y3050392D01*
X4450279Y3025400D01*
X4475270Y3050392D01*
Y3125368D01*
X4525254Y3175352D02*
X4625222D01*
X4575238D01*
Y3025400D01*
X4700198D02*
X4750182D01*
X4775173Y3050392D01*
Y3100376D01*
X4750182Y3125368D01*
X4700198D01*
X4675206Y3100376D01*
Y3050392D01*
X4700198Y3025400D01*
X4850149D02*
X4900133D01*
X4925125Y3050392D01*
Y3100376D01*
X4900133Y3125368D01*
X4850149D01*
X4825157Y3100376D01*
Y3050392D01*
X4850149Y3025400D01*
X5000100Y3150360D02*
Y3125368D01*
X4975109D01*
X5025093D01*
X5000100D01*
Y3050392D01*
X5025093Y3025400D01*
X5100068Y3175352D02*
Y3025400D01*
Y3100376D01*
X5125060Y3125368D01*
X5175044D01*
X5200036Y3100376D01*
Y3025400D01*
X6668248Y1575336D02*
Y1275400D01*
X6682531Y1575336D02*
Y1275400D01*
X6625400Y1575336D02*
X6796792D01*
X6839640Y1561053D01*
X6853922Y1546770D01*
X6868205Y1518205D01*
Y1475357D01*
X6853922Y1446792D01*
X6839640Y1432509D01*
X6796792Y1418227D01*
X6682531D01*
X6796792Y1575336D02*
X6825357Y1561053D01*
X6839640Y1546770D01*
X6853922Y1518205D01*
Y1475357D01*
X6839640Y1446792D01*
X6825357Y1432509D01*
X6796792Y1418227D01*
X6625400Y1275400D02*
X6725378D01*
X6936762Y1575336D02*
X7036740Y1418227D01*
Y1275400D01*
X6951045Y1575336D02*
X7051023Y1418227D01*
Y1275400D01*
X7151001Y1575336D02*
X7051023Y1418227D01*
X6908196Y1575336D02*
X6993892D01*
X7093871D02*
X7179567D01*
X6993892Y1275400D02*
X7093871D01*
X7316680Y1575336D02*
Y1275400D01*
X7330963Y1575336D02*
Y1275400D01*
X7230984Y1575336D02*
X7216702Y1489640D01*
Y1575336D01*
X7430941D01*
Y1489640D01*
X7416659Y1575336D01*
X7273832Y1275400D02*
X7373811D01*
X7516637Y1575336D02*
Y1275400D01*
X7530920Y1575336D02*
Y1275400D01*
X7473789Y1575336D02*
X7645181D01*
X7688029Y1561053D01*
X7702311Y1546770D01*
X7716594Y1518205D01*
Y1489640D01*
X7702311Y1461075D01*
X7688029Y1446792D01*
X7645181Y1432509D01*
X7530920D01*
X7645181Y1575336D02*
X7673746Y1561053D01*
X7688029Y1546770D01*
X7702311Y1518205D01*
Y1489640D01*
X7688029Y1461075D01*
X7673746Y1446792D01*
X7645181Y1432509D01*
X7473789Y1275400D02*
X7573768D01*
X7602333Y1432509D02*
X7630898Y1418227D01*
X7645181Y1403944D01*
X7688029Y1303965D01*
X7702311Y1289683D01*
X7716594D01*
X7730877Y1303965D01*
X7630898Y1418227D02*
X7645181Y1389661D01*
X7673746Y1289683D01*
X7688029Y1275400D01*
X7716594D01*
X7730877Y1303965D01*
Y1318248D01*
X7869419Y1575336D02*
X7826571Y1561053D01*
X7798005Y1532488D01*
X7783723Y1503922D01*
X7769440Y1446792D01*
Y1403944D01*
X7783723Y1346813D01*
X7798005Y1318248D01*
X7826571Y1289683D01*
X7869419Y1275400D01*
X7897984D01*
X7940832Y1289683D01*
X7969397Y1318248D01*
X7983680Y1346813D01*
X7997962Y1403944D01*
Y1446792D01*
X7983680Y1503922D01*
X7969397Y1532488D01*
X7940832Y1561053D01*
X7897984Y1575336D01*
X7869419D01*
X7840854Y1561053D01*
X7812288Y1532488D01*
X7798005Y1503922D01*
X7783723Y1446792D01*
Y1403944D01*
X7798005Y1346813D01*
X7812288Y1318248D01*
X7840854Y1289683D01*
X7869419Y1275400D01*
X7897984D02*
X7926549Y1289683D01*
X7955115Y1318248D01*
X7969397Y1346813D01*
X7983680Y1403944D01*
Y1446792D01*
X7969397Y1503922D01*
X7955115Y1532488D01*
X7926549Y1561053D01*
X7897984Y1575336D01*
X8082230D02*
Y1275400D01*
X8096513Y1575336D02*
X8267904Y1303965D01*
X8096513Y1546770D02*
X8267904Y1275400D01*
Y1575336D02*
Y1275400D01*
X8039382Y1575336D02*
X8096513D01*
X8225057D02*
X8310752D01*
X8039382Y1275400D02*
X8125078D01*
X8390735Y1575336D02*
Y1275400D01*
X8405018Y1575336D02*
Y1275400D01*
X8347887Y1575336D02*
X8447866D01*
X8347887Y1275400D02*
X8447866D01*
X8702097Y1532488D02*
X8716380Y1489640D01*
Y1575336D01*
X8702097Y1532488D01*
X8673532Y1561053D01*
X8630684Y1575336D01*
X8602118D01*
X8559271Y1561053D01*
X8530705Y1532488D01*
X8516423Y1503922D01*
X8502140Y1461075D01*
Y1389661D01*
X8516423Y1346813D01*
X8530705Y1318248D01*
X8559271Y1289683D01*
X8602118Y1275400D01*
X8630684D01*
X8673532Y1289683D01*
X8702097Y1318248D01*
X8716380Y1346813D01*
X8602118Y1575336D02*
X8573553Y1561053D01*
X8544988Y1532488D01*
X8530705Y1503922D01*
X8516423Y1461075D01*
Y1389661D01*
X8530705Y1346813D01*
X8544988Y1318248D01*
X8573553Y1289683D01*
X8602118Y1275400D01*
X8143240Y9885631D02*
Y9758672D01*
X8168632Y9733280D01*
X8219415D01*
X8244807Y9758672D01*
Y9885631D01*
X8371766Y9733280D02*
Y9885631D01*
X8295591Y9809455D01*
X8397158D01*
X6695440Y9885631D02*
Y9758672D01*
X6720832Y9733280D01*
X6771615D01*
X6797007Y9758672D01*
Y9885631D01*
X6847791Y9860239D02*
X6873183Y9885631D01*
X6923966D01*
X6949358Y9860239D01*
Y9834847D01*
X6923966Y9809455D01*
X6898574D01*
X6923966D01*
X6949358Y9784063D01*
Y9758672D01*
X6923966Y9733280D01*
X6873183D01*
X6847791Y9758672D01*
X5293360Y9885631D02*
Y9758672D01*
X5318752Y9733280D01*
X5369535D01*
X5394927Y9758672D01*
Y9885631D01*
X5547278Y9733280D02*
X5445711D01*
X5547278Y9834847D01*
Y9860239D01*
X5521886Y9885631D01*
X5471103D01*
X5445711Y9860239D01*
X543560Y9936431D02*
Y9809472D01*
X568952Y9784080D01*
X619735D01*
X645127Y9809472D01*
Y9936431D01*
X695911Y9784080D02*
X746694D01*
X721303D01*
Y9936431D01*
X695911Y9911039D01*
X7668260Y6024880D02*
Y6177231D01*
X7744435D01*
X7769827Y6151839D01*
Y6101055D01*
X7744435Y6075663D01*
X7668260D01*
X7719043D02*
X7769827Y6024880D01*
X7820611D02*
X7871394D01*
X7846003D01*
Y6177231D01*
X7820611Y6151839D01*
X7947570D02*
X7972961Y6177231D01*
X8023745D01*
X8049137Y6151839D01*
Y6050272D01*
X8023745Y6024880D01*
X7972961D01*
X7947570Y6050272D01*
Y6151839D01*
X6916420Y6024880D02*
Y6177231D01*
X6992595D01*
X7017987Y6151839D01*
Y6101055D01*
X6992595Y6075663D01*
X6916420D01*
X6967203D02*
X7017987Y6024880D01*
X7068771Y6050272D02*
X7094163Y6024880D01*
X7144946D01*
X7170338Y6050272D01*
Y6151839D01*
X7144946Y6177231D01*
X7094163D01*
X7068771Y6151839D01*
Y6126447D01*
X7094163Y6101055D01*
X7170338D01*
X6217920Y6024880D02*
Y6177231D01*
X6294095D01*
X6319487Y6151839D01*
Y6101055D01*
X6294095Y6075663D01*
X6217920D01*
X6268703D02*
X6319487Y6024880D01*
X6370271Y6151839D02*
X6395663Y6177231D01*
X6446446D01*
X6471838Y6151839D01*
Y6126447D01*
X6446446Y6101055D01*
X6471838Y6075663D01*
Y6050272D01*
X6446446Y6024880D01*
X6395663D01*
X6370271Y6050272D01*
Y6075663D01*
X6395663Y6101055D01*
X6370271Y6126447D01*
Y6151839D01*
X6395663Y6101055D02*
X6446446D01*
X5567680Y6024880D02*
Y6177231D01*
X5643855D01*
X5669247Y6151839D01*
Y6101055D01*
X5643855Y6075663D01*
X5567680D01*
X5618463D02*
X5669247Y6024880D01*
X5720031Y6177231D02*
X5821598D01*
Y6151839D01*
X5720031Y6050272D01*
Y6024880D01*
X4917440D02*
Y6177231D01*
X4993615D01*
X5019007Y6151839D01*
Y6101055D01*
X4993615Y6075663D01*
X4917440D01*
X4968223D02*
X5019007Y6024880D01*
X5171358Y6177231D02*
X5120574Y6151839D01*
X5069791Y6101055D01*
Y6050272D01*
X5095183Y6024880D01*
X5145966D01*
X5171358Y6050272D01*
Y6075663D01*
X5145966Y6101055D01*
X5069791D01*
X4267200Y6024880D02*
Y6177231D01*
X4343375D01*
X4368767Y6151839D01*
Y6101055D01*
X4343375Y6075663D01*
X4267200D01*
X4317983D02*
X4368767Y6024880D01*
X4521118Y6177231D02*
X4419551D01*
Y6101055D01*
X4470334Y6126447D01*
X4495726D01*
X4521118Y6101055D01*
Y6050272D01*
X4495726Y6024880D01*
X4444943D01*
X4419551Y6050272D01*
X3616960Y6024880D02*
Y6177231D01*
X3693135D01*
X3718527Y6151839D01*
Y6101055D01*
X3693135Y6075663D01*
X3616960D01*
X3667743D02*
X3718527Y6024880D01*
X3845486D02*
Y6177231D01*
X3769311Y6101055D01*
X3870878D01*
X2173041Y223825D02*
Y376176D01*
X2249216D01*
X2274608Y350784D01*
Y300000D01*
X2249216Y274608D01*
X2173041D01*
X2223825D02*
X2274608Y223825D01*
X2325392Y350784D02*
X2350784Y376176D01*
X2401567D01*
X2426959Y350784D01*
Y325392D01*
X2401567Y300000D01*
X2376175D01*
X2401567D01*
X2426959Y274608D01*
Y249217D01*
X2401567Y223825D01*
X2350784D01*
X2325392Y249217D01*
X1523041Y223825D02*
Y376175D01*
X1599217D01*
X1624608Y350783D01*
Y300000D01*
X1599217Y274608D01*
X1523041D01*
X1573825D02*
X1624608Y223825D01*
X1776959D02*
X1675392D01*
X1776959Y325392D01*
Y350783D01*
X1751567Y376175D01*
X1700784D01*
X1675392Y350783D01*
X898433Y223825D02*
Y376176D01*
X974608D01*
X1000000Y350784D01*
Y300000D01*
X974608Y274608D01*
X898433D01*
X949217D02*
X1000000Y223825D01*
X1050784D02*
X1101567D01*
X1076176D01*
Y376176D01*
X1050784Y350784D01*
X8717247Y3787132D02*
Y3888699D01*
X8691855Y3914091D01*
X8641072D01*
X8615680Y3888699D01*
Y3787132D01*
X8641072Y3761740D01*
X8691855D01*
X8666463Y3812523D02*
X8717247Y3761740D01*
X8691855D02*
X8717247Y3787132D01*
X8768031Y3888699D02*
X8793423Y3914091D01*
X8844206D01*
X8869598Y3888699D01*
Y3863307D01*
X8844206Y3837915D01*
X8818814D01*
X8844206D01*
X8869598Y3812523D01*
Y3787132D01*
X8844206Y3761740D01*
X8793423D01*
X8768031Y3787132D01*
X8674609Y4799216D02*
Y4900783D01*
X8649217Y4926175D01*
X8598433D01*
X8573041Y4900783D01*
Y4799216D01*
X8598433Y4773825D01*
X8649217D01*
X8623825Y4824608D02*
X8674609Y4773825D01*
X8649217D02*
X8674609Y4799216D01*
X8826959Y4773825D02*
X8725392D01*
X8826959Y4875392D01*
Y4900783D01*
X8801567Y4926175D01*
X8750784D01*
X8725392Y4900783D01*
X8717247Y5989312D02*
Y6090879D01*
X8691855Y6116271D01*
X8641072D01*
X8615680Y6090879D01*
Y5989312D01*
X8641072Y5963920D01*
X8691855D01*
X8666463Y6014703D02*
X8717247Y5963920D01*
X8691855D02*
X8717247Y5989312D01*
X8768031Y5963920D02*
X8818814D01*
X8793423D01*
Y6116271D01*
X8768031Y6090879D01*
X9570687Y3192731D02*
X9519903D01*
X9545295D01*
Y3065772D01*
X9519903Y3040380D01*
X9494512D01*
X9469120Y3065772D01*
X9723038Y3040380D02*
X9621471D01*
X9723038Y3141947D01*
Y3167339D01*
X9697646Y3192731D01*
X9646863D01*
X9621471Y3167339D01*
X9773821Y3040380D02*
X9824605D01*
X9799213D01*
Y3192731D01*
X9773821Y3167339D01*
X8867107Y835611D02*
X8816323D01*
X8841715D01*
Y708652D01*
X8816323Y683260D01*
X8790932D01*
X8765540Y708652D01*
X9019458Y683260D02*
X8917891D01*
X9019458Y784827D01*
Y810219D01*
X8994066Y835611D01*
X8943283D01*
X8917891Y810219D01*
X9070241D02*
X9095633Y835611D01*
X9146417D01*
X9171809Y810219D01*
Y708652D01*
X9146417Y683260D01*
X9095633D01*
X9070241Y708652D01*
Y810219D01*
X8067007Y835611D02*
X8016223D01*
X8041615D01*
Y708652D01*
X8016223Y683260D01*
X7990832D01*
X7965440Y708652D01*
X8117791Y683260D02*
X8168574D01*
X8143183D01*
Y835611D01*
X8117791Y810219D01*
X8244750Y708652D02*
X8270141Y683260D01*
X8320925D01*
X8346317Y708652D01*
Y810219D01*
X8320925Y835611D01*
X8270141D01*
X8244750Y810219D01*
Y784827D01*
X8270141Y759435D01*
X8346317D01*
X7216107Y835611D02*
X7165323D01*
X7190715D01*
Y708652D01*
X7165323Y683260D01*
X7139932D01*
X7114540Y708652D01*
X7266891Y683260D02*
X7317674D01*
X7292283D01*
Y835611D01*
X7266891Y810219D01*
X7393850D02*
X7419241Y835611D01*
X7470025D01*
X7495417Y810219D01*
Y784827D01*
X7470025Y759435D01*
X7495417Y734043D01*
Y708652D01*
X7470025Y683260D01*
X7419241D01*
X7393850Y708652D01*
Y734043D01*
X7419241Y759435D01*
X7393850Y784827D01*
Y810219D01*
X7419241Y759435D02*
X7470025D01*
X6416007Y835611D02*
X6365223D01*
X6390615D01*
Y708652D01*
X6365223Y683260D01*
X6339832D01*
X6314440Y708652D01*
X6466791Y683260D02*
X6517574D01*
X6492183D01*
Y835611D01*
X6466791Y810219D01*
X6593750Y835611D02*
X6695317D01*
Y810219D01*
X6593750Y708652D01*
Y683260D01*
X5318727Y833071D02*
X5267943D01*
X5293335D01*
Y706112D01*
X5267943Y680720D01*
X5242552D01*
X5217160Y706112D01*
X5369511Y680720D02*
X5420294D01*
X5394903D01*
Y833071D01*
X5369511Y807679D01*
X5598037Y833071D02*
X5547253Y807679D01*
X5496470Y756895D01*
Y706112D01*
X5521861Y680720D01*
X5572645D01*
X5598037Y706112D01*
Y731503D01*
X5572645Y756895D01*
X5496470D01*
X9561129Y4130176D02*
X9510345D01*
X9535737D01*
Y4003217D01*
X9510345Y3977825D01*
X9484954D01*
X9459562Y4003217D01*
X9611912Y3977825D02*
X9662696D01*
X9637304D01*
Y4130176D01*
X9611912Y4104784D01*
X9840439Y4130176D02*
X9738871D01*
Y4054000D01*
X9789655Y4079392D01*
X9815047D01*
X9840439Y4054000D01*
Y4003217D01*
X9815047Y3977825D01*
X9764263D01*
X9738871Y4003217D01*
X3771867Y822911D02*
X3721083D01*
X3746475D01*
Y695952D01*
X3721083Y670560D01*
X3695692D01*
X3670300Y695952D01*
X3822651Y670560D02*
X3873434D01*
X3848043D01*
Y822911D01*
X3822651Y797519D01*
X4025785Y670560D02*
Y822911D01*
X3949610Y746735D01*
X4051177D01*
X9730023Y6759981D02*
X9690035D01*
X9710029D01*
Y6660013D01*
X9690035Y6640019D01*
X9670042D01*
X9650049Y6660013D01*
X9770010Y6640019D02*
X9809997D01*
X9790003D01*
Y6759981D01*
X9770010Y6739987D01*
X9869977D02*
X9889971Y6759981D01*
X9929958D01*
X9949952Y6739987D01*
Y6719994D01*
X9929958Y6700000D01*
X9909964D01*
X9929958D01*
X9949952Y6680006D01*
Y6660013D01*
X9929958Y6640019D01*
X9889971D01*
X9869977Y6660013D01*
X9532587Y9933891D02*
X9481803D01*
X9507195D01*
Y9806932D01*
X9481803Y9781540D01*
X9456412D01*
X9431020Y9806932D01*
X9583371Y9781540D02*
X9634154D01*
X9608763D01*
Y9933891D01*
X9583371Y9908499D01*
X9811897Y9781540D02*
X9710330D01*
X9811897Y9883107D01*
Y9908499D01*
X9786505Y9933891D01*
X9735721D01*
X9710330Y9908499D01*
X9570687Y5092651D02*
X9519903D01*
X9545295D01*
Y4965692D01*
X9519903Y4940300D01*
X9494512D01*
X9469120Y4965692D01*
X9621471Y4940300D02*
X9672254D01*
X9646863D01*
Y5092651D01*
X9621471Y5067259D01*
X9748430Y4940300D02*
X9799213D01*
X9773821D01*
Y5092651D01*
X9748430Y5067259D01*
X5768307Y3591511D02*
X5717523D01*
X5742915D01*
Y3464552D01*
X5717523Y3439160D01*
X5692132D01*
X5666740Y3464552D01*
X5819091Y3439160D02*
X5869874D01*
X5844483D01*
Y3591511D01*
X5819091Y3566119D01*
X5946050D02*
X5971441Y3591511D01*
X6022225D01*
X6047617Y3566119D01*
Y3464552D01*
X6022225Y3439160D01*
X5971441D01*
X5946050Y3464552D01*
Y3566119D01*
X3832827Y3738831D02*
X3782043D01*
X3807435D01*
Y3611872D01*
X3782043Y3586480D01*
X3756652D01*
X3731260Y3611872D01*
X3883611D02*
X3909003Y3586480D01*
X3959786D01*
X3985178Y3611872D01*
Y3713439D01*
X3959786Y3738831D01*
X3909003D01*
X3883611Y3713439D01*
Y3688047D01*
X3909003Y3662655D01*
X3985178D01*
X9570687Y2191971D02*
X9519903D01*
X9545295D01*
Y2065012D01*
X9519903Y2039620D01*
X9494512D01*
X9469120Y2065012D01*
X9621471Y2166579D02*
X9646863Y2191971D01*
X9697646D01*
X9723038Y2166579D01*
Y2141187D01*
X9697646Y2115795D01*
X9723038Y2090403D01*
Y2065012D01*
X9697646Y2039620D01*
X9646863D01*
X9621471Y2065012D01*
Y2090403D01*
X9646863Y2115795D01*
X9621471Y2141187D01*
Y2166579D01*
X9646863Y2115795D02*
X9697646D01*
X4919947Y9588451D02*
X4869163D01*
X4894555D01*
Y9461492D01*
X4869163Y9436100D01*
X4843772D01*
X4818380Y9461492D01*
X4970731Y9588451D02*
X5072298D01*
Y9563059D01*
X4970731Y9461492D01*
Y9436100D01*
X424608Y2126175D02*
X373825D01*
X399217D01*
Y1999216D01*
X373825Y1973825D01*
X348433D01*
X323041Y1999216D01*
X576959Y2126175D02*
X526175Y2100783D01*
X475392Y2050000D01*
Y1999216D01*
X500784Y1973825D01*
X551567D01*
X576959Y1999216D01*
Y2024608D01*
X551567Y2050000D01*
X475392D01*
X2824608Y2126175D02*
X2773825D01*
X2799216D01*
Y1999216D01*
X2773825Y1973825D01*
X2748433D01*
X2723041Y1999216D01*
X2976959Y2126175D02*
X2875392D01*
Y2050000D01*
X2926175Y2075392D01*
X2951567D01*
X2976959Y2050000D01*
Y1999216D01*
X2951567Y1973825D01*
X2900784D01*
X2875392Y1999216D01*
X3063207Y9235391D02*
X3012423D01*
X3037815D01*
Y9108432D01*
X3012423Y9083040D01*
X2987032D01*
X2961640Y9108432D01*
X3190166Y9083040D02*
Y9235391D01*
X3113991Y9159215D01*
X3215558D01*
X3919187Y9883091D02*
X3868403D01*
X3893795D01*
Y9756132D01*
X3868403Y9730740D01*
X3843012D01*
X3817620Y9756132D01*
X3969971Y9857699D02*
X3995363Y9883091D01*
X4046146D01*
X4071538Y9857699D01*
Y9832307D01*
X4046146Y9806915D01*
X4020754D01*
X4046146D01*
X4071538Y9781523D01*
Y9756132D01*
X4046146Y9730740D01*
X3995363D01*
X3969971Y9756132D01*
X3063207Y9885631D02*
X3012423D01*
X3037815D01*
Y9758672D01*
X3012423Y9733280D01*
X2987032D01*
X2961640Y9758672D01*
X3215558Y9733280D02*
X3113991D01*
X3215558Y9834847D01*
Y9860239D01*
X3190166Y9885631D01*
X3139383D01*
X3113991Y9860239D01*
X2410460Y9890711D02*
Y9738360D01*
X2486635D01*
X2512027Y9763752D01*
Y9865319D01*
X2486635Y9890711D01*
X2410460D01*
X2664378Y9738360D02*
X2562811D01*
X2664378Y9839927D01*
Y9865319D01*
X2638986Y9890711D01*
X2588203D01*
X2562811Y9865319D01*
X1907540Y9878011D02*
Y9725660D01*
X1983715D01*
X2009107Y9751052D01*
Y9852619D01*
X1983715Y9878011D01*
X1907540D01*
X2059891Y9725660D02*
X2110674D01*
X2085283D01*
Y9878011D01*
X2059891Y9852619D01*
X7661129Y8200783D02*
X7635737Y8226175D01*
X7584954D01*
X7559562Y8200783D01*
Y8099216D01*
X7584954Y8073825D01*
X7635737D01*
X7661129Y8099216D01*
X7711912Y8073825D02*
X7762696D01*
X7737304D01*
Y8226175D01*
X7711912Y8200783D01*
X7940439Y8226175D02*
X7838871D01*
Y8150000D01*
X7889655Y8175392D01*
X7915047D01*
X7940439Y8150000D01*
Y8099216D01*
X7915047Y8073825D01*
X7864263D01*
X7838871Y8099216D01*
X6311129Y8200783D02*
X6285737Y8226175D01*
X6234953D01*
X6209562Y8200783D01*
Y8099216D01*
X6234953Y8073825D01*
X6285737D01*
X6311129Y8099216D01*
X6361912Y8073825D02*
X6412696D01*
X6387304D01*
Y8226175D01*
X6361912Y8200783D01*
X6565047Y8073825D02*
Y8226175D01*
X6488871Y8150000D01*
X6590438D01*
X4911129Y8200783D02*
X4885737Y8226175D01*
X4834953D01*
X4809562Y8200783D01*
Y8099216D01*
X4834953Y8073825D01*
X4885737D01*
X4911129Y8099216D01*
X4961912Y8073825D02*
X5012696D01*
X4987304D01*
Y8226175D01*
X4961912Y8200783D01*
X5088871D02*
X5114263Y8226175D01*
X5165047D01*
X5190438Y8200783D01*
Y8175392D01*
X5165047Y8150000D01*
X5139655D01*
X5165047D01*
X5190438Y8124608D01*
Y8099216D01*
X5165047Y8073825D01*
X5114263D01*
X5088871Y8099216D01*
X9061129Y8192783D02*
X9035737Y8218175D01*
X8984954D01*
X8959562Y8192783D01*
Y8091216D01*
X8984954Y8065825D01*
X9035737D01*
X9061129Y8091216D01*
X9111912Y8065825D02*
X9162696D01*
X9137304D01*
Y8218175D01*
X9111912Y8192783D01*
X9340439Y8065825D02*
X9238871D01*
X9340439Y8167392D01*
Y8192783D01*
X9315047Y8218175D01*
X9264263D01*
X9238871Y8192783D01*
X3536520Y8200783D02*
X3511129Y8226175D01*
X3460345D01*
X3434953Y8200783D01*
Y8099216D01*
X3460345Y8073825D01*
X3511129D01*
X3536520Y8099216D01*
X3587304Y8073825D02*
X3638087D01*
X3612696D01*
Y8226175D01*
X3587304Y8200783D01*
X3714263Y8073825D02*
X3765046D01*
X3739655D01*
Y8226175D01*
X3714263Y8200783D01*
X161129Y3400783D02*
X135737Y3426175D01*
X84954D01*
X59562Y3400783D01*
Y3299216D01*
X84954Y3273825D01*
X135737D01*
X161129Y3299216D01*
X211912Y3273825D02*
X262696D01*
X237304D01*
Y3426175D01*
X211912Y3400783D01*
X338871D02*
X364263Y3426175D01*
X415047D01*
X440439Y3400783D01*
Y3299216D01*
X415047Y3273825D01*
X364263D01*
X338871Y3299216D01*
Y3400783D01*
X274608Y4550783D02*
X249216Y4576175D01*
X198433D01*
X173041Y4550783D01*
Y4449216D01*
X198433Y4423825D01*
X249216D01*
X274608Y4449216D01*
X325392D02*
X350784Y4423825D01*
X401567D01*
X426959Y4449216D01*
Y4550783D01*
X401567Y4576175D01*
X350784D01*
X325392Y4550783D01*
Y4525392D01*
X350784Y4500000D01*
X426959D01*
X2924608Y3400783D02*
X2899216Y3426175D01*
X2848433D01*
X2823041Y3400783D01*
Y3299216D01*
X2848433Y3273825D01*
X2899216D01*
X2924608Y3299216D01*
X2975392Y3400783D02*
X3000784Y3426175D01*
X3051567D01*
X3076959Y3400783D01*
Y3375392D01*
X3051567Y3350000D01*
X3076959Y3324608D01*
Y3299216D01*
X3051567Y3273825D01*
X3000784D01*
X2975392Y3299216D01*
Y3324608D01*
X3000784Y3350000D01*
X2975392Y3375392D01*
Y3400783D01*
X3000784Y3350000D02*
X3051567D01*
X2924608Y4600784D02*
X2899216Y4626175D01*
X2848433D01*
X2823041Y4600784D01*
Y4499217D01*
X2848433Y4473825D01*
X2899216D01*
X2924608Y4499217D01*
X2975392Y4626175D02*
X3076959D01*
Y4600784D01*
X2975392Y4499217D01*
Y4473825D01*
X2924608Y5800784D02*
X2899216Y5826176D01*
X2848433D01*
X2823041Y5800784D01*
Y5699217D01*
X2848433Y5673825D01*
X2899216D01*
X2924608Y5699217D01*
X3076959Y5826176D02*
X3026175Y5800784D01*
X2975392Y5750000D01*
Y5699217D01*
X3000784Y5673825D01*
X3051567D01*
X3076959Y5699217D01*
Y5724608D01*
X3051567Y5750000D01*
X2975392D01*
X2924608Y7000783D02*
X2899216Y7026175D01*
X2848433D01*
X2823041Y7000783D01*
Y6899216D01*
X2848433Y6873824D01*
X2899216D01*
X2924608Y6899216D01*
X3076959Y7026175D02*
X2975392D01*
Y6950000D01*
X3026175Y6975392D01*
X3051567D01*
X3076959Y6950000D01*
Y6899216D01*
X3051567Y6873824D01*
X3000784D01*
X2975392Y6899216D01*
X2924608Y8200783D02*
X2899216Y8226175D01*
X2848433D01*
X2823041Y8200783D01*
Y8099216D01*
X2848433Y8073825D01*
X2899216D01*
X2924608Y8099216D01*
X3051567Y8073825D02*
Y8226175D01*
X2975392Y8150000D01*
X3076959D01*
X324608Y5800783D02*
X299217Y5826175D01*
X248433D01*
X223041Y5800783D01*
Y5699216D01*
X248433Y5673825D01*
X299217D01*
X324608Y5699216D01*
X375392Y5800783D02*
X400784Y5826175D01*
X451567D01*
X476959Y5800783D01*
Y5775392D01*
X451567Y5750000D01*
X426175D01*
X451567D01*
X476959Y5724608D01*
Y5699216D01*
X451567Y5673825D01*
X400784D01*
X375392Y5699216D01*
X324608Y7000784D02*
X299217Y7026175D01*
X248433D01*
X223041Y7000784D01*
Y6899217D01*
X248433Y6873825D01*
X299217D01*
X324608Y6899217D01*
X476959Y6873825D02*
X375392D01*
X476959Y6975392D01*
Y7000784D01*
X451567Y7026175D01*
X400784D01*
X375392Y7000784D01*
X350000Y8200784D02*
X324608Y8226176D01*
X273825D01*
X248433Y8200784D01*
Y8099217D01*
X273825Y8073825D01*
X324608D01*
X350000Y8099217D01*
X400784Y8073825D02*
X451567D01*
X426176D01*
Y8226176D01*
X400784Y8200784D01*
D25*
X9462840Y6547700D02*
X9737160D01*
Y5252300D02*
Y6547700D01*
X9462840Y5252300D02*
X9737160D01*
X9462840D02*
Y6547700D01*
X9293700Y312840D02*
Y587160D01*
X8760300Y312840D02*
X9293700D01*
X8760300D02*
Y587160D01*
X9293700D01*
X9462840Y3360300D02*
X9737160D01*
X9462840D02*
Y3893700D01*
X9737160D01*
Y3360300D02*
Y3893700D01*
X4343700Y8712840D02*
Y8987160D01*
X3810300Y8712840D02*
X4343700D01*
X3810300D02*
Y8987160D01*
X4343700D01*
X312840Y602300D02*
X587160D01*
X312840D02*
Y1897700D01*
X587160D01*
Y602300D02*
Y1897700D01*
X2712840Y598300D02*
X2987160D01*
X2712840D02*
Y1893700D01*
X2987160D01*
Y598300D02*
Y1893700D01*
X3489700Y9362840D02*
Y9637160D01*
X2956300Y9362840D02*
X3489700D01*
X2956300D02*
Y9637160D01*
X3489700D01*
Y8712840D02*
Y8987160D01*
X2956300Y8712840D02*
X3489700D01*
X2956300D02*
Y8987160D01*
X3489700D01*
X4812840Y9339700D02*
X5087160D01*
Y8806300D02*
Y9339700D01*
X4812840Y8806300D02*
X5087160D01*
X4812840D02*
Y9339700D01*
X9462840Y1410300D02*
X9737160D01*
X9462840D02*
Y1943700D01*
X9737160D01*
Y1410300D02*
Y1943700D01*
X3712840Y2206300D02*
X3987160D01*
X3712840D02*
Y3501700D01*
X3987160D01*
Y2206300D02*
Y3501700D01*
X5662840Y2810300D02*
X5937160D01*
X5662840D02*
Y3343700D01*
X5937160D01*
Y2810300D02*
Y3343700D01*
X9462840Y4310300D02*
X9737160D01*
X9462840D02*
Y4843700D01*
X9737160D01*
Y4310300D02*
Y4843700D01*
X9412840Y8402300D02*
X9687160D01*
X9412840D02*
Y9697700D01*
X9687160D01*
Y8402300D02*
Y9697700D01*
X4947700Y312840D02*
Y587160D01*
X3652300Y312840D02*
X4947700D01*
X3652300D02*
Y587160D01*
X4947700D01*
X6843700Y312840D02*
Y587160D01*
X6310300Y312840D02*
X6843700D01*
X6310300D02*
Y587160D01*
X6843700D01*
X7643700Y312840D02*
Y587160D01*
X7110300Y312840D02*
X7643700D01*
X7110300D02*
Y587160D01*
X7643700D01*
X8493700Y312840D02*
Y587160D01*
X7960300Y312840D02*
X8493700D01*
X7960300D02*
Y587160D01*
X8493700D01*
X9462840Y2410300D02*
X9737160D01*
X9462840D02*
Y2943700D01*
X9737160D01*
Y2410300D02*
Y2943700D01*
D26*
X2411500Y9086000D02*
X2588500D01*
X2500000Y9428000D02*
Y9481300D01*
Y8918700D02*
Y8972000D01*
X2404500D02*
X2595500D01*
Y9428000D01*
X2404500D02*
X2595500D01*
X2404500Y8972000D02*
Y9428000D01*
X1908880Y9073000D02*
X2085880D01*
X1997380Y9415000D02*
Y9468300D01*
Y8905700D02*
Y8959000D01*
X1901880D02*
X2092880D01*
Y9415000D01*
X1901880D02*
X2092880D01*
X1901880Y8959000D02*
Y9415000D01*
D27*
X2084639Y3605799D02*
X2063479Y3626959D01*
X2021160D01*
X2000000Y3605799D01*
Y3521160D01*
X2021160Y3500000D01*
X2063479D01*
X2084639Y3521160D01*
X2126959Y3500000D02*
X2169278D01*
X2148118D01*
Y3626959D01*
X2126959Y3605799D01*
X2232758Y3500000D02*
X2275077D01*
X2253918D01*
Y3626959D01*
X2232758Y3605799D01*
%TF.MD5,49ac553b63621a4e1e31d09c4814b233*%
M02*
