%TF.GenerationSoftware,Altium Limited,Altium Designer,25.1.2 (22)*%
G04 Layer_Color=16711935*
%FSLAX45Y45*%
%MOMM*%
%TF.SameCoordinates,72AD03BC-5321-4E10-B882-476D86518C11*%
%TF.FilePolarity,Negative*%
%TF.FileFunction,Soldermask,Bot*%
%TF.Part,Single*%
G01*
G75*
%TA.AperFunction,ComponentPad*%
%ADD12C,1.57480*%
%ADD14C,1.37160*%
%ADD15C,1.32080*%
%ADD20C,1.20000*%
%ADD21R,1.20000X1.20000*%
%TA.AperFunction,ViaPad*%
%ADD28C,2.70320*%
%TA.AperFunction,ComponentPad*%
%ADD29C,1.77800*%
%ADD30O,2.40320X1.30320*%
%ADD31R,1.33400X1.33400*%
%ADD32C,1.33400*%
%ADD33R,2.07820X2.07820*%
%ADD34C,2.07820*%
%TA.AperFunction,ViaPad*%
%ADD35C,0.90320*%
D12*
X9154000Y450000D02*
D03*
X8900000D02*
D03*
X9600000Y3500000D02*
D03*
Y3754000D02*
D03*
X4204000Y8850000D02*
D03*
X3950000D02*
D03*
X3350000Y9500000D02*
D03*
X3096000D02*
D03*
X3350000Y8850000D02*
D03*
X3096000D02*
D03*
X4950000Y9200000D02*
D03*
Y8946000D02*
D03*
X9600000Y1550000D02*
D03*
Y1804000D02*
D03*
X5800000Y2950000D02*
D03*
Y3204000D02*
D03*
X9600000Y4450000D02*
D03*
Y4704000D02*
D03*
X6704000Y450000D02*
D03*
X6450000D02*
D03*
X7504000D02*
D03*
X7250000D02*
D03*
X8354000D02*
D03*
X8100000D02*
D03*
X9600000Y2550000D02*
D03*
Y2804000D02*
D03*
D14*
X3750000Y7500000D02*
D03*
X4250000D02*
D03*
X7850000D02*
D03*
X8350000D02*
D03*
X6500000D02*
D03*
X7000000D02*
D03*
X9150000D02*
D03*
X9650000D02*
D03*
X5100000D02*
D03*
X5600000D02*
D03*
X2000000Y2900000D02*
D03*
X2500000D02*
D03*
X2000000Y4100000D02*
D03*
X2500000D02*
D03*
X2000000Y5300000D02*
D03*
X2500000D02*
D03*
X2000000Y6500000D02*
D03*
X2500000D02*
D03*
X2000000Y7700000D02*
D03*
X2500000D02*
D03*
X800000Y2900000D02*
D03*
X1300000D02*
D03*
X800000Y4100000D02*
D03*
X1300000D02*
D03*
X800000Y5300000D02*
D03*
X1300000D02*
D03*
X800000Y6500000D02*
D03*
X1300000D02*
D03*
X800000Y7700000D02*
D03*
X1300000D02*
D03*
D15*
X1650000Y2000000D02*
D03*
Y500000D02*
D03*
X2300000Y2000000D02*
D03*
Y500000D02*
D03*
X1000000Y2000000D02*
D03*
Y500000D02*
D03*
X3800000Y5850000D02*
D03*
Y4350000D02*
D03*
X4450000Y5850000D02*
D03*
Y4350000D02*
D03*
X5100000Y5850000D02*
D03*
Y4350000D02*
D03*
X5750000Y5850000D02*
D03*
Y4350000D02*
D03*
X6400000Y5850000D02*
D03*
Y4350000D02*
D03*
X7100000Y5850000D02*
D03*
Y4350000D02*
D03*
X7850000Y5850000D02*
D03*
Y4350000D02*
D03*
D20*
X2500000Y9581300D02*
D03*
X1997380Y9568300D02*
D03*
D21*
X2500000Y8818700D02*
D03*
X1997380Y8805700D02*
D03*
D28*
X4250000Y6500000D02*
D03*
X7300000Y8350000D02*
D03*
X5800000Y8300000D02*
D03*
X9150000Y1100000D02*
D03*
X6500000Y3800000D02*
D03*
X7450000Y3150000D02*
D03*
X5850000Y1750000D02*
D03*
X3800000Y1400000D02*
D03*
X250000Y250000D02*
D03*
Y9700000D02*
D03*
D29*
X9600000Y5900000D02*
D03*
Y6408000D02*
D03*
Y6154000D02*
D03*
Y5646000D02*
D03*
Y5392000D02*
D03*
X450000Y1250000D02*
D03*
Y742000D02*
D03*
Y996000D02*
D03*
Y1504000D02*
D03*
Y1758000D02*
D03*
X2850000Y1246000D02*
D03*
Y738000D02*
D03*
Y992000D02*
D03*
Y1500000D02*
D03*
Y1754000D02*
D03*
X3850000Y2854000D02*
D03*
Y2346000D02*
D03*
Y2600000D02*
D03*
Y3108000D02*
D03*
Y3362000D02*
D03*
X9550000Y9050000D02*
D03*
Y8542000D02*
D03*
Y8796000D02*
D03*
Y9304000D02*
D03*
Y9558000D02*
D03*
X4300000Y450000D02*
D03*
X4808000D02*
D03*
X4554000D02*
D03*
X4046000D02*
D03*
X3792000D02*
D03*
D30*
X8850000Y4146000D02*
D03*
Y4400000D02*
D03*
Y4654000D02*
D03*
Y5296000D02*
D03*
Y5550000D02*
D03*
Y5804000D02*
D03*
Y3096000D02*
D03*
Y3350000D02*
D03*
Y3604000D02*
D03*
D31*
X603000Y9581000D02*
D03*
X5353000Y9531000D02*
D03*
X6753000D02*
D03*
X8203000D02*
D03*
D32*
X603000Y9327000D02*
D03*
Y9073000D02*
D03*
Y8819000D02*
D03*
X1397000D02*
D03*
Y9073000D02*
D03*
Y9327000D02*
D03*
Y9581000D02*
D03*
X5353000Y9277000D02*
D03*
Y9023000D02*
D03*
Y8769000D02*
D03*
X6147000D02*
D03*
Y9023000D02*
D03*
Y9277000D02*
D03*
Y9531000D02*
D03*
X6753000Y9277000D02*
D03*
Y9023000D02*
D03*
Y8769000D02*
D03*
X7547000D02*
D03*
Y9023000D02*
D03*
Y9277000D02*
D03*
Y9531000D02*
D03*
X8203000Y9277000D02*
D03*
Y9023000D02*
D03*
Y8769000D02*
D03*
X8997000D02*
D03*
Y9023000D02*
D03*
Y9277000D02*
D03*
Y9531000D02*
D03*
D33*
X4454000Y9500000D02*
D03*
X5854000Y450000D02*
D03*
D34*
X4200000Y9500000D02*
D03*
X3946000D02*
D03*
X5600000Y450000D02*
D03*
X5346000D02*
D03*
D35*
X7300000Y150000D02*
D03*
X8900000Y4850000D02*
D03*
X9100000D02*
D03*
X9350000Y5700000D02*
D03*
X9100000Y5100000D02*
D03*
X9350000Y6300000D02*
D03*
Y6550000D02*
D03*
X9150000Y6650000D02*
D03*
X9600000Y6750000D02*
D03*
X9650000Y7200000D02*
D03*
X8500000Y5500000D02*
D03*
Y5650000D02*
D03*
Y5250000D02*
D03*
X8350000Y5800000D02*
D03*
X9200000Y5900000D02*
D03*
X9250000Y8500000D02*
D03*
X8850000Y8150000D02*
D03*
X8750000Y6950000D02*
D03*
X8350000Y5500000D02*
D03*
Y5150000D02*
D03*
X9150000Y4150000D02*
D03*
X9300000Y2950000D02*
D03*
X9592940Y2250000D02*
D03*
X9200000Y9650000D02*
D03*
X9350000Y7950000D02*
D03*
Y4850000D02*
D03*
X8750000Y8450000D02*
D03*
X9200000Y4950000D02*
D03*
X6700000Y4750000D02*
D03*
X5750000Y5450000D02*
D03*
X6626690Y6423310D02*
D03*
X6600000Y6650000D02*
D03*
X4800000Y8450000D02*
D03*
X8000000Y9300000D02*
D03*
X8150000Y7400000D02*
D03*
Y7700000D02*
D03*
X7850000Y7150000D02*
D03*
X7450000Y6900000D02*
D03*
X6700000Y5850000D02*
D03*
X9050000Y2750000D02*
D03*
X6850000Y8350000D02*
D03*
X6900000Y7850000D02*
D03*
X6450000Y8350000D02*
D03*
X6500000Y8700000D02*
D03*
X6400000Y9024000D02*
D03*
X6950000Y6800000D02*
D03*
X2850000Y9300000D02*
D03*
X2250000Y8350000D02*
D03*
%TF.MD5,b35d3a62478460c3de5c33106bb06d25*%
M02*
