%TF.GenerationSoftware,Altium Limited,Altium Designer,25.1.2 (22)*%
G04 Layer_Physical_Order=1*
G04 Layer_Color=255*
%FSLAX45Y45*%
%MOMM*%
%TF.SameCoordinates,72AD03BC-5321-4E10-B882-476D86518C11*%
%TF.FilePolarity,Positive*%
%TF.FileFunction,Copper,L1,Top,Signal*%
%TF.Part,Single*%
G01*
G75*
%TA.AperFunction,Conductor*%
%ADD10C,0.25400*%
%TA.AperFunction,ViaPad*%
%ADD11C,2.50000*%
%TA.AperFunction,ComponentPad*%
%ADD12C,1.57480*%
%ADD13O,2.20000X1.10000*%
%ADD14C,1.37160*%
%ADD15C,1.32080*%
%ADD16R,1.13000X1.13000*%
%ADD17C,1.13000*%
%ADD18R,1.87500X1.87500*%
%ADD19C,1.87500*%
%ADD20C,1.20000*%
%ADD21R,1.20000X1.20000*%
%TA.AperFunction,ViaPad*%
%ADD22C,0.70000*%
D10*
X3646000Y9200000D02*
X3946000Y9500000D01*
X1263215Y9073000D02*
X1390215Y9200000D01*
X3646000D01*
X7800000Y150000D02*
X8100000Y450000D01*
X7300000Y150000D02*
X7800000D01*
X8850000Y5296000D02*
X8857070D01*
X8896150Y5256920D01*
Y4853850D02*
Y5256920D01*
Y4853850D02*
X8900000Y4850000D01*
X8998100Y4701900D02*
Y5334563D01*
Y4701900D02*
X9600000Y4100000D01*
X8932663Y5400000D02*
X8998100Y5334563D01*
X9100000Y4850000D02*
Y4996621D01*
X9173100Y5069721D01*
Y5353742D01*
X9149200Y5377642D02*
X9173100Y5353742D01*
X9149200Y5377642D02*
Y5732386D01*
X9350000Y5933187D01*
Y6300000D01*
X9200000Y5024779D02*
X9223900Y5048679D01*
X9200000Y5398684D02*
X9223900Y5374784D01*
X9200000Y5398684D02*
Y5665236D01*
Y4950000D02*
Y5024779D01*
X9223900Y5048679D02*
Y5374784D01*
X8742000Y5400000D02*
X8932663D01*
X7954140Y4455140D02*
X8795000Y5296000D01*
X9350000Y4850000D02*
Y5700000D01*
X9200000Y5665236D02*
X9551603Y6016840D01*
X8905000Y5550000D02*
X9100000Y5355000D01*
X8567000Y5575000D02*
X8742000Y5400000D01*
X9100000Y5100000D02*
Y5355000D01*
X8471621Y5575000D02*
X8567000D01*
X8850000Y5550000D02*
X8905000D01*
X8100000Y5600000D02*
X8446621D01*
X8471621Y5575000D01*
X9268251Y6408000D02*
X9600000D01*
X9250000Y6426251D02*
Y6700000D01*
Y6426251D02*
X9268251Y6408000D01*
X9541466Y6741466D02*
X9591466D01*
X9350000Y6550000D02*
X9541466Y6741466D01*
X9591466D02*
X9600000Y6750000D01*
X8864479Y7085521D02*
X9250000Y6700000D01*
X9150000Y6306034D02*
Y6650000D01*
X9650000Y7200000D02*
Y7500000D01*
X8500000Y5250000D02*
Y5500000D01*
X8654000Y5804000D02*
X8850000D01*
X8500000Y5650000D02*
X8654000Y5804000D01*
X8350000Y5800000D02*
Y6550000D01*
X8750000Y6950000D01*
X9250000Y8500000D02*
Y8915237D01*
X9524728Y9189964D01*
Y9278728D01*
X9550000Y9304000D01*
X9363600Y9117600D02*
X9524728Y9278728D01*
X9717640Y8544403D02*
Y9627438D01*
X9666840Y8912840D02*
Y9606397D01*
X9550000Y8796000D02*
X9666840Y8912840D01*
X9550000Y8542000D02*
Y8796000D01*
X9546802Y8396802D02*
X9570038D01*
X9350000Y8200000D02*
X9546802Y8396802D01*
X9350000Y7950000D02*
Y8200000D01*
X9570038Y8396802D02*
X9717640Y8544403D01*
X8850000Y8622000D02*
X8997000Y8769000D01*
X8850000Y8150000D02*
Y8622000D01*
X8350000Y5150000D02*
Y5500000D01*
X7850000Y5850000D02*
X8100000Y5600000D01*
X5750000Y4350000D02*
X5854140Y4245860D01*
X9150000Y2589561D02*
Y4150000D01*
Y2589561D02*
X9600000Y2139561D01*
Y1804000D02*
Y2139561D01*
X9300000Y2850000D02*
Y2950000D01*
Y2850000D02*
X9600000Y2550000D01*
X9592940Y2250000D02*
X9885121D01*
X9200000Y9650000D02*
X9300000Y9750000D01*
X9595078D01*
X9717640Y9627438D01*
X9380213Y9674840D02*
X9598397D01*
X9666840Y9606397D01*
X9236373Y9531000D02*
X9380213Y9674840D01*
X8997000Y9531000D02*
X9236373D01*
X8902400Y9625600D02*
X8997000Y9531000D01*
X8613611Y7085521D02*
X8864479D01*
X9150000Y6306034D02*
X9200000Y6256034D01*
Y5900000D02*
Y6256034D01*
X7850000Y7500000D02*
X8199132D01*
X8613611Y7085521D01*
X8750000Y7749132D02*
Y8450000D01*
Y7749132D02*
X9716840Y6782292D01*
Y6105603D02*
Y6782292D01*
X9628077Y6016840D02*
X9716840Y6105603D01*
X9551603Y6016840D02*
X9628077D01*
X8150000Y8176000D02*
X8997000Y9023000D01*
X8150000Y7700000D02*
Y8176000D01*
X8203000Y8769000D02*
X8551600Y9117600D01*
X9363600D01*
X6700000Y4750000D02*
Y5850000D01*
X6443136Y4245860D02*
X7100000Y4902724D01*
Y5850000D01*
X5854140Y4245860D02*
X6443136D01*
X5750000Y5450000D02*
Y5850000D01*
X6618156Y6431844D02*
X6626690Y6423310D01*
X4800000Y6450000D02*
X6540889D01*
X6559045Y6431844D02*
X6618156D01*
X6540889Y6450000D02*
X6559045Y6431844D01*
X6290121Y6650000D02*
X6600000D01*
X4549132Y8450000D02*
X4800000D01*
X3643320Y7544188D02*
X4549132Y8450000D01*
X3643320Y6789868D02*
Y7544188D01*
Y6789868D02*
X3800000Y6633188D01*
Y5850000D02*
Y6633188D01*
X5800000Y2950000D02*
Y3204000D01*
X5604924Y2754924D02*
X5800000Y2950000D01*
X5604924Y2219803D02*
Y2754924D01*
X5435121Y2050000D02*
X5604924Y2219803D01*
X3600000Y2050000D02*
X5435121D01*
X3500000Y2150000D02*
X3600000Y2050000D01*
X3500000Y2150000D02*
Y4050000D01*
X3800000Y4350000D01*
X7600400Y9371600D02*
X8203000Y8769000D01*
X7507815Y9371600D02*
X7600400D01*
X8091466Y7391466D02*
X8141466D01*
X7850000Y7150000D02*
X8091466Y7391466D01*
X8141466D02*
X8150000Y7400000D01*
X7106680Y7606680D02*
X8243320D01*
X7000000Y7500000D02*
X7106680Y7606680D01*
X8243320D02*
X8350000Y7500000D01*
X7100000Y5850000D02*
X7550000Y6300000D01*
X7000000Y7500000D02*
X7550000Y6950000D01*
Y6300000D02*
Y6950000D01*
X6700000Y5850000D02*
Y6150000D01*
X7450000Y6900000D01*
X6500000Y7500000D02*
X6950000Y7050000D01*
Y6800000D02*
Y7050000D01*
X9150000Y8142000D02*
X9550000Y8542000D01*
X9150000Y7500000D02*
Y8142000D01*
Y7500000D02*
X9900000Y6750000D01*
Y2264879D02*
Y6750000D01*
X9885121Y2250000D02*
X9900000Y2264879D01*
X9050000Y2750000D02*
Y4386664D01*
X6500000Y8700000D02*
X6850000Y8350000D01*
X6900000Y7850000D02*
Y7900000D01*
X6450000Y8350000D02*
X6900000Y7900000D01*
X7000000Y7500000D02*
Y8563014D01*
X6893320Y7606680D02*
X7000000Y7500000D01*
X6140555Y7606680D02*
X6893320D01*
X6147000Y9277000D02*
X6400000Y9024000D01*
X5447600Y8863600D02*
X6658400D01*
X6753000Y8769000D02*
X7134144D01*
X6658400Y8863600D02*
X6753000Y8769000D01*
X7134144D02*
X7368280Y9003135D01*
X7000000Y8563014D02*
X7419080Y8982094D01*
X4700000Y9400000D02*
X6630000D01*
X9600000Y3754000D02*
Y4100000D01*
Y6154000D02*
Y6408000D01*
X5440121Y7500000D02*
X6290121Y6650000D01*
X5100000Y7500000D02*
X5440121D01*
X3750000D02*
X4800000Y6450000D01*
X7954140Y3058140D02*
Y4455140D01*
X5346000Y450000D02*
X7954140Y3058140D01*
X8850000Y4654000D02*
X8853220D01*
X8892300Y4614920D01*
Y4544364D02*
Y4614920D01*
Y4544364D02*
X9050000Y4386664D01*
X8795000Y5296000D02*
X8850000D01*
X7100000Y5850000D02*
X7850000D01*
X5229160Y333160D02*
X5346000Y450000D01*
X4162840Y333160D02*
X5229160D01*
X4046000Y450000D02*
X4162840Y333160D01*
X3792000Y450000D02*
X4046000D01*
X4204000Y8850000D02*
X4464636Y9110636D01*
Y9164636D01*
X4700000Y9400000D01*
X6630000D02*
X6753000Y9277000D01*
X3998397Y8733160D02*
X4066479Y8801242D01*
X4486077Y8966840D02*
X4512648D01*
X4087521Y8801242D02*
X4155603Y8733160D01*
X4252397D02*
X4486077Y8966840D01*
X4155603Y8733160D02*
X4252397D01*
X4066479Y8801242D02*
X4087521D01*
X8057600Y9422400D02*
X8203000Y9277000D01*
X6898400Y9422400D02*
X8057600D01*
X6753000Y9277000D02*
X6898400Y9422400D01*
X6295860Y4454140D02*
X6400000Y4350000D01*
X5706864Y4454140D02*
X6295860D01*
X4360724Y3108000D02*
X5706864Y4454140D01*
X3850000Y3108000D02*
X4360724D01*
X3875272Y2460035D02*
X5750000Y4334763D01*
Y4350000D01*
X3301603Y8733160D02*
X3998397D01*
X3223000Y8811763D02*
X3301603Y8733160D01*
X7419080Y9149080D02*
X7547000Y9277000D01*
X7419080Y8982094D02*
Y9149080D01*
X7368280Y9003135D02*
Y9232065D01*
X7507815Y9371600D01*
X6680718Y9625600D02*
X7452400D01*
X7547000Y9531000D01*
X6586118D02*
X6680718Y9625600D01*
X3850000Y2346000D02*
X3875272Y2371272D01*
Y2460035D01*
X6033875Y7500000D02*
X6140555Y7606680D01*
X5600000Y7500000D02*
X6033875D01*
X5493320Y7606680D02*
X5600000Y7500000D01*
X4765555Y7606680D02*
X5493320D01*
X4658875Y7500000D02*
X4765555Y7606680D01*
X4250000Y7500000D02*
X4658875D01*
X2300000Y500000D02*
X2500000Y700000D01*
Y2900000D01*
Y4100000D01*
Y5300000D01*
Y6500000D01*
Y7700000D01*
Y8254000D01*
X3096000Y8850000D01*
X3727000Y9073000D02*
X3950000Y8850000D01*
X1397000Y9073000D02*
X3727000D01*
X800000Y4100000D02*
Y5300000D01*
Y6500000D01*
Y7700000D01*
X2850000Y9300000D02*
X3150000D01*
X3350000Y9500000D01*
X1411056Y8966840D02*
X3144397D01*
X2606899Y9500000D02*
X3096000D01*
X2525599Y9581300D02*
X2606899Y9500000D01*
X2500000Y9581300D02*
X2525599D01*
X1984080Y8819000D02*
X1997380Y8805700D01*
X1397000Y8819000D02*
X1984080D01*
X603000D02*
X1263215D01*
X1411056Y8966840D01*
X7641600Y9625600D02*
X8902400D01*
X7547000Y9531000D02*
X7641600Y9625600D01*
X6147000Y9531000D02*
X6586118D01*
X5998600Y9679400D02*
X6147000Y9531000D01*
X1969745Y9679400D02*
X5998600D01*
X1871345Y9581000D02*
X1969745Y9679400D01*
X1397000Y9581000D02*
X1871345D01*
X603000Y9073000D02*
X1263215D01*
X9550000Y9304000D02*
Y9558000D01*
X5353000Y8769000D02*
X5447600Y8863600D01*
X4710488Y8769000D02*
X5353000D01*
X4512648Y8966840D02*
X4710488Y8769000D01*
X3223000Y8811763D02*
Y8888236D01*
X3144397Y8966840D02*
X3223000Y8888236D01*
X1000000Y8422000D02*
X1397000Y8819000D01*
X1000000Y2000000D02*
Y8422000D01*
X2250000Y8350000D02*
X2300000Y8300000D01*
Y2000000D02*
Y8300000D01*
X1650000Y7968700D02*
X2500000Y8818700D01*
X1650000Y1350000D02*
X2300000Y2000000D01*
X1650000Y500000D02*
Y1350000D01*
X1000000Y500000D02*
X1650000D01*
Y2000000D02*
Y7968700D01*
X800000Y2900000D02*
Y4100000D01*
D11*
X4250000Y6500000D02*
D03*
X7300000Y8350000D02*
D03*
X5800000Y8300000D02*
D03*
X9150000Y1100000D02*
D03*
X6500000Y3800000D02*
D03*
X7450000Y3150000D02*
D03*
X5850000Y1750000D02*
D03*
X3800000Y1400000D02*
D03*
X250000Y250000D02*
D03*
Y9700000D02*
D03*
D12*
X9600000Y5900000D02*
D03*
Y6408000D02*
D03*
Y6154000D02*
D03*
Y5646000D02*
D03*
Y5392000D02*
D03*
X9154000Y450000D02*
D03*
X8900000D02*
D03*
X9600000Y3500000D02*
D03*
Y3754000D02*
D03*
X4204000Y8850000D02*
D03*
X3950000D02*
D03*
X450000Y1250000D02*
D03*
Y742000D02*
D03*
Y996000D02*
D03*
Y1504000D02*
D03*
Y1758000D02*
D03*
X2850000Y1246000D02*
D03*
Y738000D02*
D03*
Y992000D02*
D03*
Y1500000D02*
D03*
Y1754000D02*
D03*
X3350000Y9500000D02*
D03*
X3096000D02*
D03*
X3350000Y8850000D02*
D03*
X3096000D02*
D03*
X4950000Y9200000D02*
D03*
Y8946000D02*
D03*
X9600000Y1550000D02*
D03*
Y1804000D02*
D03*
X3850000Y2854000D02*
D03*
Y2346000D02*
D03*
Y2600000D02*
D03*
Y3108000D02*
D03*
Y3362000D02*
D03*
X5800000Y2950000D02*
D03*
Y3204000D02*
D03*
X9600000Y4450000D02*
D03*
Y4704000D02*
D03*
X9550000Y9050000D02*
D03*
Y8542000D02*
D03*
Y8796000D02*
D03*
Y9304000D02*
D03*
Y9558000D02*
D03*
X4300000Y450000D02*
D03*
X4808000D02*
D03*
X4554000D02*
D03*
X4046000D02*
D03*
X3792000D02*
D03*
X6704000D02*
D03*
X6450000D02*
D03*
X7504000D02*
D03*
X7250000D02*
D03*
X8354000D02*
D03*
X8100000D02*
D03*
X9600000Y2550000D02*
D03*
Y2804000D02*
D03*
D13*
X8850000Y4146000D02*
D03*
Y4400000D02*
D03*
Y4654000D02*
D03*
Y5296000D02*
D03*
Y5550000D02*
D03*
Y5804000D02*
D03*
Y3096000D02*
D03*
Y3350000D02*
D03*
Y3604000D02*
D03*
D14*
X3750000Y7500000D02*
D03*
X4250000D02*
D03*
X7850000D02*
D03*
X8350000D02*
D03*
X6500000D02*
D03*
X7000000D02*
D03*
X9150000D02*
D03*
X9650000D02*
D03*
X5100000D02*
D03*
X5600000D02*
D03*
X2000000Y2900000D02*
D03*
X2500000D02*
D03*
X2000000Y4100000D02*
D03*
X2500000D02*
D03*
X2000000Y5300000D02*
D03*
X2500000D02*
D03*
X2000000Y6500000D02*
D03*
X2500000D02*
D03*
X2000000Y7700000D02*
D03*
X2500000D02*
D03*
X800000Y2900000D02*
D03*
X1300000D02*
D03*
X800000Y4100000D02*
D03*
X1300000D02*
D03*
X800000Y5300000D02*
D03*
X1300000D02*
D03*
X800000Y6500000D02*
D03*
X1300000D02*
D03*
X800000Y7700000D02*
D03*
X1300000D02*
D03*
D15*
X1650000Y2000000D02*
D03*
Y500000D02*
D03*
X2300000Y2000000D02*
D03*
Y500000D02*
D03*
X1000000Y2000000D02*
D03*
Y500000D02*
D03*
X3800000Y5850000D02*
D03*
Y4350000D02*
D03*
X4450000Y5850000D02*
D03*
Y4350000D02*
D03*
X5100000Y5850000D02*
D03*
Y4350000D02*
D03*
X5750000Y5850000D02*
D03*
Y4350000D02*
D03*
X6400000Y5850000D02*
D03*
Y4350000D02*
D03*
X7100000Y5850000D02*
D03*
Y4350000D02*
D03*
X7850000Y5850000D02*
D03*
Y4350000D02*
D03*
D16*
X603000Y9581000D02*
D03*
X5353000Y9531000D02*
D03*
X6753000D02*
D03*
X8203000D02*
D03*
D17*
X603000Y9327000D02*
D03*
Y9073000D02*
D03*
Y8819000D02*
D03*
X1397000D02*
D03*
Y9073000D02*
D03*
Y9327000D02*
D03*
Y9581000D02*
D03*
X5353000Y9277000D02*
D03*
Y9023000D02*
D03*
Y8769000D02*
D03*
X6147000D02*
D03*
Y9023000D02*
D03*
Y9277000D02*
D03*
Y9531000D02*
D03*
X6753000Y9277000D02*
D03*
Y9023000D02*
D03*
Y8769000D02*
D03*
X7547000D02*
D03*
Y9023000D02*
D03*
Y9277000D02*
D03*
Y9531000D02*
D03*
X8203000Y9277000D02*
D03*
Y9023000D02*
D03*
Y8769000D02*
D03*
X8997000D02*
D03*
Y9023000D02*
D03*
Y9277000D02*
D03*
Y9531000D02*
D03*
D18*
X4454000Y9500000D02*
D03*
X5854000Y450000D02*
D03*
D19*
X4200000Y9500000D02*
D03*
X3946000D02*
D03*
X5600000Y450000D02*
D03*
X5346000D02*
D03*
D20*
X2500000Y9581300D02*
D03*
X1997380Y9568300D02*
D03*
D21*
X2500000Y8818700D02*
D03*
X1997380Y8805700D02*
D03*
D22*
X7300000Y150000D02*
D03*
X8900000Y4850000D02*
D03*
X9100000D02*
D03*
X9350000Y5700000D02*
D03*
X9100000Y5100000D02*
D03*
X9350000Y6300000D02*
D03*
Y6550000D02*
D03*
X9150000Y6650000D02*
D03*
X9600000Y6750000D02*
D03*
X9650000Y7200000D02*
D03*
X8500000Y5500000D02*
D03*
Y5650000D02*
D03*
Y5250000D02*
D03*
X8350000Y5800000D02*
D03*
X9200000Y5900000D02*
D03*
X9250000Y8500000D02*
D03*
X8850000Y8150000D02*
D03*
X8750000Y6950000D02*
D03*
X8350000Y5500000D02*
D03*
Y5150000D02*
D03*
X9150000Y4150000D02*
D03*
X9300000Y2950000D02*
D03*
X9592940Y2250000D02*
D03*
X9200000Y9650000D02*
D03*
X9350000Y7950000D02*
D03*
Y4850000D02*
D03*
X8750000Y8450000D02*
D03*
X9200000Y4950000D02*
D03*
X6700000Y4750000D02*
D03*
X5750000Y5450000D02*
D03*
X6626690Y6423310D02*
D03*
X6600000Y6650000D02*
D03*
X4800000Y8450000D02*
D03*
X8000000Y9300000D02*
D03*
X8150000Y7400000D02*
D03*
Y7700000D02*
D03*
X7850000Y7150000D02*
D03*
X7450000Y6900000D02*
D03*
X6700000Y5850000D02*
D03*
X9050000Y2750000D02*
D03*
X6850000Y8350000D02*
D03*
X6900000Y7850000D02*
D03*
X6450000Y8350000D02*
D03*
X6500000Y8700000D02*
D03*
X6400000Y9024000D02*
D03*
X6950000Y6800000D02*
D03*
X2850000Y9300000D02*
D03*
X2250000Y8350000D02*
D03*
%TF.MD5,c7ac38370aaf9086d7b6583cbb8185f5*%
M02*
